<?xml version="1.0" standalone="no"?>
<!DOCTYPE svg PUBLIC "-//W3C//DTD SVG 1.1//EN" "http://www.w3.org/Graphics/SVG/1.1/DTD/svg11.dtd" >
<svg xmlns="http://www.w3.org/2000/svg">
<metadata>
This is a custom SVG webfont generated by Font Squirrel.
Copyright   : c2005 Jakob Fischer at wwwpizzadudedk all rights reserved DO NOT DISTRIBUTE WITHOUT AUTHORS PERMISSION
</metadata>
<defs>
<font id="webfontBSEKLjkH" horiz-adv-x="671" >
<font-face units-per-em="2048" ascent="1638" descent="-410" />
<missing-glyph horiz-adv-x="1024" />
<glyph unicode=" "  horiz-adv-x="1024" />
<glyph unicode="&#x09;" horiz-adv-x="1024" />
<glyph unicode="&#xa0;" horiz-adv-x="1024" />
<glyph unicode="!" horiz-adv-x="395" d="M133 754l10 342q4 168 70 168q6 0 6 -2t4 -2q4 2 13 10q76 -49 75 -70q0 -12 -6 -34.5t-6 -32.5q-4 -43 -6 -201q-2 -20 -6 -88q-2 -47 -2 -90l8 -330q0 -20 -18.5 -43t-38.5 -23q-6 0 -4.5 4.5t-2.5 4.5q-6 0 -16 -4.5t-16 -4.5q-47 0 -56 66q-2 6 -2 84v94q0 14 -2 76z M170 117q0 27 26.5 47t53.5 20q86 0 86 -67q0 -16 -24.5 -37t-43.5 -21q-6 0 -8 4l-8 -8q-23 0 -66 27q-16 19 -16 35z" />
<glyph unicode="&#x22;" horiz-adv-x="690" d="M129 1305q-2 23 18.5 38t42.5 15q35 0 82 -31q14 -10 19 -135q0 -39 11 -127t11 -129q0 -16 -17 -33.5t-34 -17.5h-37q-63 0 -78 184zM428 1372q61 39 86 39q14 0 43 -28.5t29 -41.5q0 -70 8 -254l8 -182q0 -66 -67 -65h-35q-10 0 -33 13t-23 21l-6 285q-2 88 -10 213z " />
<glyph unicode="#" horiz-adv-x="925" d="M53 403q8 10 23 23q31 16 69 16q8 0 24.5 -2t25.5 -2q47 0 49 11q43 170 43 262q0 18 -8 18q-12 0 -39 -4t-39 -4q-35 0 -74 16q-47 20 -47 49q4 8 35 39q37 10 92 11h92q18 37 27 102q12 96 16 111q8 63 18 125q18 63 76 63q47 0 78 -59l-53 -322q0 -2 14 -8q4 -2 10 -2 l45 6q43 6 62 6q25 145 80 422q14 10 37 35q-6 0 16 -10l8 8q4 -2 10 -8l13 12l39 -41q18 -23 14 -49l-59 -348q4 -8 14 -9q6 0 78 4l73 3q25 0 50.5 -18.5t25.5 -43.5q0 -12 -16.5 -28.5t-28.5 -16.5q-18 0 -54 -3t-54 -3q-111 0 -111 -14l-49 -287q0 -20 43 -21 q10 0 29.5 2t29.5 2q33 0 62 -14q37 -16 37 -45q0 -47 -84 -47q-6 0 -21.5 4t-21.5 4q-14 0 -43 -3t-43 -3q-23 -115 -41 -244q-4 -39 -15 -118q-14 -37 -82 -37q-23 0 -44 15t-23 36l49 340q-6 6 -10 6q-90 0 -119 -2q-14 -45 -43 -168q-8 -47 -27 -143q-20 -88 -96 -88 q-4 0 -6 4t-6 4q-6 0 -6 -8q-59 27 -54 55l80 338h-57q-39 0 -76 16q-45 20 -37 55zM397 446q53 -6 84 -6q35 0 47 6q29 176 43 293q-29 10 -49 6l-24 -4q-43 0 -58 -4q-4 -57 -24 -202q-6 -37 -12.5 -60.5t-6.5 -19.5v-9z" />
<glyph unicode="$" horiz-adv-x="694" d="M84 397q0 39 86 56q41 0 127 -16.5t129 -16.5q23 0 52.5 28.5t29.5 51.5q0 29 -57 45l-222 63q-127 53 -127 133q0 43 95 127q12 8 110 54q-23 35 -22 131q0 207 92 207q20 0 44.5 -26t24.5 -46q0 43 -6 -42t-6 -128q0 -8 -3 -26.5t-3 -26.5q0 -23 14 -23q4 0 7 2h6 q43 0 102 -31.5t68 -70.5q18 -37 18 -33q0 -45 -70 -45q-4 0 -8 3t-8 3q-35 0 -49 25q0 10 -10 30q-16 18 -49 19q-4 0 -5.5 -4t-7.5 -4q-4 0 -6 2t-6 2q-33 0 -99.5 -40t-66.5 -69q0 -12 10 -20q27 -10 94 -33q53 -14 160 -47q135 -49 135 -142q0 -106 -200 -172l24 -192 q0 -84 -78 -84h-22q-43 0 -47 29q-4 82 -23 247q-12 14 -55 19.5t-53 9.5q-43 6 -66 10q-53 12 -53 41z" />
<glyph unicode="%" horiz-adv-x="1392" d="M90 993q0 174 225 250q25 8 119 8q43 0 152 -114q-4 -6 -4 -13q0 -6 10 -24.5t12 -28.5q8 -55 8 -92q0 -193 -200 -219q-4 0 -12.5 -6t-14.5 -6q-109 0 -192 55q-103 67 -103 190zM246 985q0 -49 31.5 -92t78.5 -43q68 0 90 65q14 43 15 78q0 31 -19 86q-25 74 -61 74 q-20 0 -88 -55q-16 -12 -31.5 -50t-15.5 -63zM438 57q0 70 287 734q33 66 113 239q20 49 57 129q0 2 12 43q16 53 94 53q25 0 47.5 -24.5t22.5 -48.5q0 -2 -29 -62q-33 -66 -36 -76l-80 -184q-6 -6 -17 -20q-152 -336 -215 -506q-68 -176 -98 -273q-12 -35 -35 -43 q-10 -4 -57 -4q-18 0 -39 13q-27 12 -27 30zM836 324q0 92 73.5 185t163.5 107q6 0 23.5 7.5t25.5 7.5q10 -4 49 -29q94 -25 151.5 -107.5t57.5 -183.5q0 -80 -86 -161.5t-166 -81.5h-45q-113 0 -180 71.5t-67 184.5zM995 332q0 -158 97 -158q49 0 93 43t44 92q0 53 -23 107 q-27 61 -67 84q-2 0 -12.5 9t-14.5 9q-25 0 -58.5 -42t-39.5 -70q-19 -84 -19 -74z" />
<glyph unicode="&#x26;" horiz-adv-x="1165" d="M72 225q0 150 118 273l158 161q-68 197 -67 273q0 84 104 145q92 53 184 53q98 0 201 -63q119 -74 119 -176q0 -45 -82 -117q-61 -53 -266 -164q96 -135 309 -346q33 43 33 139q0 86 -23 119q-131 -12 -112 -12q-96 0 -97 51q0 45 172 60q102 0 305 14q39 4 54 4 q16 0 41.5 -23.5t25.5 -40.5q0 -47 -96 -47h-115q-6 -4 -6 -75q0 -39 2 -68q0 -25 0 -16q-4 -51 -18 -97q-4 -10 -27.5 -56t-23.5 -48l54 -55q54 -55 60 -74l19 -16q18 -16 18 -29q0 -20 -27.5 -33.5t-50.5 -13.5q-53 0 -170 112q-23 -16 -67 -53q-35 -29 -51 -37 q-115 -57 -166 -57q-152 0 -279 45q-168 59 -209 186q-24 74 -24 82zM236 256q0 -115 98 -180q86 -57 207 -58q90 0 227 132q-182 182 -354 387q-59 -55 -109 -123q-69 -97 -69 -158zM438 909q0 -49 35 -168q4 -14 21 -26q53 16 124 61q113 70 113 129q0 45 -45 84t-92 39 q-55 0 -102 -31q-54 -35 -54 -88z" />
<glyph unicode="'" horiz-adv-x="403" d="M129 1305q-2 23 18.5 38t42.5 15q35 0 82 -31q14 -10 19 -135q0 -39 11 -127t11 -129q0 -16 -17 -33.5t-34 -17.5h-37q-63 0 -78 184z" />
<glyph unicode="(" horiz-adv-x="544" d="M72 596q0 115 55 309q27 94 72 195l96 151q57 94 72 111q33 37 69 37q25 0 59.5 -15.5t34.5 -35.5q-8 -10 -71 -101q-84 -119 -117 -190q-6 -10 -57 -170q-10 -18 -15 -39q-43 -178 -43 -287q0 -25 11 -67q14 -53 16 -68q10 -63 35 -111q35 -63 131 -192q37 -49 65 -82 q4 -6 43 -41q8 -10 9 -27q0 -23 -30 -42t-52 -19q-59 0 -111 74q-29 29 -78 86q-10 18 -30 49q-164 188 -164 475z" />
<glyph unicode=")" horiz-adv-x="567" d="M76 -23q0 20 4 29q37 41 65 86q53 86 138 307q2 18 14 64q43 147 43 239q0 104 -28.5 232.5t-73.5 212.5l-78 139q-4 6 -4 31q0 16 26.5 28.5t44.5 12.5q55 0 84 -39q4 -4 47 -90q127 -256 134 -432q0 -16 6 -51t6 -54q0 -100 -60 -282q-41 -90 -88 -217 q-94 -246 -184 -246q-8 0 -23.5 -2t-23.5 -2q-12 0 -30.5 11t-18.5 23z" />
<glyph unicode="*" horiz-adv-x="708" d="M86 1018q0 33 88 53q47 6 94 14q0 35 -7 106t-7 105q0 16 16.5 30.5t32.5 14.5q4 0 9 -3t10 -3q4 0 8 2t8 2q29 0 65 -32l13 -199q23 -2 55 0q25 2 39 4q41 0 94 -14q70 -18 70 -49q0 -18 -29 -33t-49 -15q-8 0 -22.5 2.5t-22.5 2.5q-4 0 -5 -4.5t-7 -4.5q-8 0 -32 6.5 t-36 6.5q-6 -6 -6 -11q0 -25 51 -100q8 -12 64 -84q63 -82 63 -96q0 -49 -76 -49q-49 0 -59 12q-90 111 -154 225l-59 -110q-49 -90 -84 -90h-33q-23 0 -44 15t-21 38q0 14 39 76q14 20 41 63q10 37 30 64l-10 2h-57q-4 0 -13.5 5t-13.5 5t-4 -2t-4 -2q-8 0 -21.5 19.5 t-13.5 27.5z" />
<glyph unicode="+" horiz-adv-x="731" d="M63 643q0 16 33 35.5t51 19.5q16 0 97 -6l94 -8q6 0 6 43q0 35 -4 98q8 18 8 49q0 10 -2 31t-2 31q0 84 86 84q27 0 49.5 -31t22.5 -59q0 -14 -6 -25v-207q12 -14 43 -14q12 0 37.5 2t37.5 2q168 0 168 -65q0 -23 -23.5 -40.5t-47.5 -15.5q33 10 34 11q10 0 -34 -5 q-45 -4 -99 0q-74 6 -112 -2q-8 -47 -15 -219q-4 -111 -30 -110q-4 0 -14.5 -4.5t-16.5 -4.5t-24.5 -2t-26.5 -2q-51 0 -51 70q0 6 8 102l6 99q0 70 -8 69q-45 2 -135 9q-130 14 -130 65z" />
<glyph unicode="," horiz-adv-x="460" d="M111 199q0 43 43 86t86 43q12 0 37.5 -9.5t37.5 -9.5q6 0 6.5 2t4.5 2q8 0 31.5 -26.5t27.5 -36.5q25 -76 25 -135l-7 -4q4 -6 5 -19q0 -57 -58.5 -123.5t-113.5 -66.5q-33 0 -66 14q-41 18 -41 47q0 16 16 27q39 23 60 37q37 27 53 57q-147 25 -147 115z" />
<glyph unicode="-" d="M102 614l33 41q61 20 47 21q18 0 57.5 -11.5t57.5 -11.5q6 0 18.5 -4t18.5 -4q45 0 133 -3t131 -3q121 0 121 -66q0 -16 -28.5 -35.5t-45.5 -19.5q-2 0 -37 4l-53 6q-84 0 -250 4q-203 12 -203 82z" />
<glyph unicode="." horiz-adv-x="405" d="M94 186q0 49 39 95.5t88 46.5q139 0 139 -95q0 -68 -49 -108q-55 -47 -100 -47q-47 0 -82 30.5t-35 77.5z" />
<glyph unicode="/" horiz-adv-x="817" d="M90 -113q0 16 53 115l86 231q53 135 82 179q182 336 334 786q14 41 35 90q0 14 16 47q23 45 47 45q6 0 15.5 -2t15.5 -2h10q14 0 39 -17.5t25 -29.5q0 -8 -21.5 -61.5t-27.5 -61.5q0 -2 4 -6q-66 -215 -144 -393q-39 -109 -94 -215l-98 -186q-86 -229 -203 -492 q-31 -70 -78 -70q-96 0 -96 43z" />
<glyph unicode="0" horiz-adv-x="974" d="M98 473q0 59 21 156l24 114q0 8 37 95q55 129 221 272q63 55 109 55q10 0 49 -10q10 -12 33 -27q100 -29 102 -28q49 -20 86 -66q18 -23 60 -98l6 -10q25 -43 47 -166q23 -113 22 -172q0 -203 -65 -385q-94 -264 -281 -264q-10 0 -31.5 -2.5t-31.5 -2.5q-4 0 -13.5 2.5 t-13.5 2.5h-26q-88 0 -183 94q-82 80 -118 172q-54 135 -54 268zM258 401q2 -29 35 -135q12 -41 67 -112q70 -90 125 -91q6 0 7.5 -4t6.5 -4t19 -3t21 -3q113 0 176 211q43 145 43 262q0 268 -99 422q-59 92 -127 92q-39 0 -108 -71q-111 -113 -139 -240q-37 -158 -27 -324z " />
<glyph unicode="1" horiz-adv-x="618" d="M84 -14q0 23 36 50t60 27q6 0 17.5 -2t17.5 -2q23 0 61 9q23 47 33 346q0 16 4 53t4 57v484q0 4 -3 10t-3 10q-16 -12 -49 -39q-41 -33 -55 -33q-4 0 -13.5 6.5t-13.5 6.5q-6 0 -5 -2t-3 -2q-10 0 -38 20.5t-28 30.5q10 10 189 176q10 10 37 53q20 33 45 39q4 2 49 2 q4 0 5 -4t5 -4q6 0 7 2t6 2q14 0 30.5 -15.5t16.5 -29.5q0 -6 -4 -68l-7 -65q0 -27 -7 -78t-7 -76q-4 -137 4 -299q2 -49 -12 -434q-2 -76 -8 -95.5t-17 -39.5q25 0 86 4l60 4q29 0 53.5 -17.5t24.5 -45.5q0 -23 -15 -35l-45 -29q-35 0 -103.5 -6t-103.5 -6l-10 2 q-8 0 -30.5 -5t-30.5 -5q-25 0 -75 -4.5t-75 -4.5q-27 0 -55 13q-35 14 -35 39z" />
<glyph unicode="2" horiz-adv-x="1071" d="M98 1227q0 20 29 33.5t53 13.5q-12 0 45 -17q16 -4 27 -71q2 -10 12 -72q6 0 10 8q98 186 326 187q205 0 307 -127q84 -102 84 -242q0 23 -28 -100q-14 -61 -99 -154q-70 -74 -139 -123l-162 -112q-221 -160 -260 -373q6 -6 19 -6q4 0 12 3t12 3h27q8 0 26.5 6t28.5 6 q4 0 10 4t11 4q4 0 0 -4q-2 -4 4 -4l10 6q-16 2 92 2q4 -2 10 -8l8 8q23 -12 31 -12q4 0 5 4t5 4q6 0 4 -4q-4 -4 0 -4q4 2 5 8q10 -8 57 -8q6 0 19.5 -4t19.5 -4q72 0 115 -4q4 59 16 174q-4 33 14 121q57 35 54 34q88 0 88 -53q0 -35 -8.5 -106.5t-8.5 -106.5 q-2 -104 0 -112q6 -33 -29.5 -55.5t-70.5 -22.5q-29 0 -87.5 11t-86.5 11q-4 0 -12.5 -2t-12.5 -2q-10 0 -34.5 5t-34.5 5q-20 0 -48 -2h-36h-11q-8 6 -14 7q6 0 -100 -13l-115 -12l-6 -4q-8 -4 -12 -4q-6 0 -41 2l-41 2q-68 0 -68 51q0 -23 25 90q47 217 229 381l291 213 q158 123 157 291q0 76 -62 154.5t-136 78.5q-160 0 -234 -139l-43 -88q-47 -94 -59 -166q2 -14 0 -55q0 -14 -23.5 -30.5t-37.5 -16.5q-8 0 -25.5 3t-28 3t-45.5 41q0 27 -7 78t-7 78q0 168 -12 241q0 10 -6.5 34t-6.5 34z" />
<glyph unicode="3" horiz-adv-x="1069" d="M106 250q0 18 25 37q33 23 37 26q20 -6 57 -12q25 -12 37 -55q6 -35 13.5 -69t47 -70.5t74.5 -49.5q16 -16 127 -49q20 -6 54 -6h24q39 0 96 25q14 12 45 34q14 4 41 19q117 94 117 172q0 100 -115 192q-104 84 -194 84q-37 0 -111.5 -11t-111.5 -11q-16 0 -43 21.5 t-27 37.5q0 6 13.5 24.5t19.5 20.5q55 27 155 68q266 109 267 319q0 106 -97 107q-80 0 -170 -72q-76 -57 -127 -139q-29 -45 -47 -98q-2 -14 -8 -64q-2 -16 -27.5 -29.5t-41.5 -13.5q-20 0 -54.5 19.5t-36.5 37.5q-39 262 -39 400q0 23 9 57q25 18 32 19q4 0 12.5 -3.5 t12.5 -3.5t7 3.5t7 3.5q6 0 33 -17.5t28 -23.5t3 -62q2 -12 10 -110l6 -7q35 31 76 89q2 0 8 -5q135 125 285 125q272 0 272 -229q0 -207 -237 -342q0 -2 6 -6q80 -10 171 -66.5t138 -124.5q74 -127 74 -186q0 -68 -98 -170q-82 -86 -156 -127q-119 -66 -205 -65h-51 q-115 0 -244 67q-143 74 -176 172q-11 29 -23 117z" />
<glyph unicode="4" horiz-adv-x="1128" d="M86 371q0 -20 72 186q104 299 104 610q0 8 12.5 24.5t18.5 18.5q23 6 37 7q14 0 50 -16.5t36 -29.5v-92q0 -106 -19 -223q-10 -31 -16 -57q-35 -150 -105 -355q6 -2 39 -2q6 0 109 15l104 14h195q8 8 8 27q0 25 -2 75l-2 54v153q0 8 -2 54v84q0 92 10 309q8 6 19 28 q6 0 19 4.5t20 4.5q10 0 48 -19.5t40 -27.5q-2 6 -4 -76q-2 -53 2 -146q4 -104 4 -143v-250v-51q2 -102 2 -80q51 -2 100 -2q90 -10 90 -59q0 -12 -17.5 -30t-29.5 -18q-4 0 -8 -4t-9 -4t-12.5 -2t-11.5 -2q-6 0 -17.5 2t-17.5 2q10 0 -53 -4q0 -43 -8 -155 q-2 -16 -9.5 -55.5t-7.5 -59.5t19 -21h111q94 -10 94 -55q0 -14 -27 -39.5t-41 -25.5l-430 -9q-23 0 -50.5 19.5t-27.5 40.5q0 20 39 41l37 20q55 2 119 0q12 23 16 82l8 98q-2 51 -2 78t2 29q-2 8 -6 22q-27 -2 -73 0q-49 2 -72 2l-309 -40q-14 0 -43 -5l-31 -4h-62 q-16 0 -37.5 21t-21.5 37z" />
<glyph unicode="5" horiz-adv-x="1118" d="M117 1163q0 53 143 54q4 0 9 -3.5t10 -3.5l407 41q12 0 64 2l63 2q70 0 109 -45q10 -47 10 -69v-115q0 -14 -27.5 -32.5t-42.5 -18.5h-24q-61 0 -68 69l-4 86q-12 12 -33 13q-27 0 -77 -9.5t-74 -9.5q-61 -2 -150 -14l-102 -14q-6 0 -11 2l-6 2q-10 -8 -10 -45l2 -6v-27 q0 6 6 -158q2 -72 19 -121l6 -6q139 90 315 90q332 0 387 -231q25 -102 25 -150q0 -166 -86 -264q-66 -74 -229 -153q-47 -23 -91 -23q-20 0 -62 -3t-63 -3q-31 0 -77 16q-55 18 -74 23q-90 16 -145 76q-61 61 -62 149q0 27 22.5 49.5t49.5 22.5q51 0 67 -31q6 -37 25 -96 q8 -27 43 -47q14 -8 95 -35t93 -27h47q63 0 140.5 42t111.5 96q43 68 43 151q0 170 -43 240q-57 92 -219 92q-133 0 -223 -64q-23 -16 -70 -75q-6 -16 -32 -45q-20 -12 -43 -13h-19q-10 0 -36.5 16.5t-26.5 24.5q-8 37 -21 125q-8 53 -28 426q-33 29 -33 47z" />
<glyph unicode="6" horiz-adv-x="1056" d="M80 473q0 186 127 356q121 164 297 242q47 27 164 76q84 25 163 24q66 0 146 -36q94 -43 94 -95q0 -43 -55 -43q-4 0 -14.5 -2t-14.5 -2q-31 0 -69.5 38t-57.5 38q-143 0 -332 -121q-197 -125 -235 -256q-6 -8 -14 -26q-33 -111 -33 -156q141 135 289 135q96 0 329 -49 l76 -53q47 -35 57 -68q20 -63 21 -131q0 -113 -66 -223q-78 -131 -186 -148l-115 -16q-14 0 -41.5 8t-42.5 8l-8 -8q-41 4 -145 21q-158 33 -250 182q-84 135 -84 305zM272 299q0 12 37 -76q14 -37 58.5 -75.5t81.5 -49.5q109 -31 253 -30q76 0 125 120q39 96 39 187 q0 27 -18.5 64.5t-38.5 49.5q-37 20 -132 41t-145 21q-51 0 -141 -87t-104 -140q-15 -29 -15 -25z" />
<glyph unicode="7" horiz-adv-x="942" d="M90 1210q29 16 82 35q240 4 301 8q80 6 244 15q45 2 96 8l72 6q16 0 36.5 -21.5t20.5 -37.5q0 -4 -7 -20.5t-7 -20.5q-29 -172 -152 -357l-78 -137q-68 -90 -149 -219q-14 -25 -51 -154q-25 -88 -25 -143q0 -18 4 -52t4 -50q0 -51 -86 -52q-55 0 -71 35q-10 20 -11 84 q0 27 10.5 91.5t12.5 78.5q18 125 199 398q20 25 59 79q174 311 174 375q0 8 -10 8l-494 -32q-2 -76 -6 -166q-2 -33 -8 -58.5t-57 -25.5q-25 0 -56 10q-39 14 -39 33q0 4 5.5 18.5t5.5 20.5q8 111 8 84q0 -7 -27 159z" />
<glyph unicode="8" horiz-adv-x="1001" d="M147 989q0 27 31 76q59 94 165 148.5t218 54.5q20 0 150 -56q49 -20 86 -88q29 -51 28 -90q0 -78 -34 -137q-12 -23 -107 -139q111 -86 188 -185q104 -129 105 -231q0 -139 -234 -219q-131 -45 -143 -45q-4 0 -12 -2h-10h-66q-33 -2 -74 8q-4 6 -8 6q-6 0 -5 -2t-3 -2 q-29 0 -135.5 51t-118.5 73.5t-12 65.5q0 63 57 197q84 104 256 279q0 6 -47 36l-141 72q-134 74 -134 129zM303 283q0 -41 115 -82q98 -35 145 -35q31 0 123 36t117.5 59.5t25.5 62.5t-32 108q-31 61 -62 98q-20 25 -76 82q-66 63 -75 64q-8 0 -117 -115t-121 -137 q-43 -78 -43 -141zM303 983q242 -147 262 -147q25 0 67 75.5t42 104.5q0 150 -164 149q-47 0 -126 -68.5t-81 -113.5z" />
<glyph unicode="9" horiz-adv-x="1060" d="M63 920q0 158 213 274q180 98 332 98q14 0 42 -3t42 -3q25 0 37 -6q53 -25 84 -51q18 -39 59 -101l62 -92q41 -61 53 -96q4 -23 10 -76q16 -164 17 -137q0 -78 -70 -231q-45 -100 -77.5 -146.5t-108.5 -122.5q-51 -47 -193 -188q-31 -33 -67 -33q-4 0 -4 2t-7 2 q-4 0 -4 -8q-2 2 -32 18q-23 12 -23 27q0 23 98 119q168 164 219 242q78 115 117 305l-2 43q-35 -43 -123 -127q-14 -10 -82.5 -36t-81 -26t-33 -4t-30.5 -4q-4 0 -45 2l-45 2q-53 0 -139 47q-218 120 -218 310zM211 913q0 -80 82 -160.5t164 -80.5q8 0 6 4l8 -6q12 0 39 -2 l25 -2q102 0 172 112q61 100 61 209q0 16 -16.5 59.5t-26.5 59.5q-35 35 -90 96q-115 -2 -254 -76q-170 -90 -170 -213zM858 760h6v10h-6v-10z" />
<glyph unicode=":" horiz-adv-x="475" d="M106 299q0 27 43.5 65.5t69.5 38.5q4 0 4 -2t6 -2q4 0 4 4.5t5 4.5q39 0 92 -21q68 -27 67 -63q0 -51 -65 -88q-51 -29 -92 -29q-6 0 -19.5 6t-21.5 6q-27 0 -60 26.5t-33 53.5zM152 668q0 33 35.5 75.5t66.5 42.5q53 0 96 -18q59 -23 60 -68q0 -43 -43 -82.5t-86 -39.5 q-33 0 -78 28q-51 31 -51 62z" />
<glyph unicode=";" horiz-adv-x="442" d="M61 264q0 37 80 76q68 33 103 33q51 0 96 -84q39 -72 39 -117q0 -70 -53.5 -125t-122.5 -55q-4 0 -5 4t-8 4q-4 0 -5 -2t-5 -2q-8 0 -25.5 14.5t-17.5 20.5q0 18 38 50t46 46t15 51q-6 6 -9 6q-6 0 -18 -4t-19 -4q-41 0 -81 23q-48 26 -48 65zM72 602q0 43 34.5 80 t77.5 37q49 0 99 -33q57 -35 57 -80q0 -41 -44 -77.5t-85 -36.5q-49 0 -94 31.5t-45 78.5z" />
<glyph unicode="&#x3c;" horiz-adv-x="598" d="M68 612q0 35 237 222q25 14 84.5 57t79.5 43q14 0 49 -17.5t35 -29.5q0 -29 -14 -39l-308 -238q45 -76 248 -250q39 -33 39 -57q0 -57 -72 -57q-39 0 -90 45l-77 76q-37 27 -111 102q-24 24 -100 143z" />
<glyph unicode="=" horiz-adv-x="688" d="M98 420q0 14 18.5 30.5t33.5 16.5q68 -2 188 0q16 -2 45 -2q12 2 63 8q39 6 62 6h123q106 -12 106 -69q0 -43 -92 -48l-342 -12q-205 -8 -205 70zM121 707q0 12 19.5 26.5t31.5 11.5q6 4 -6 5l246 14q8 0 36.5 3t45 3t55.5 6t59 6q27 0 69 -20.5t42 -42.5 q0 -18 -21.5 -40t-40.5 -22q-12 0 -41.5 3.5t-46.5 1.5l-342 -23q-35 -2 -67 14q-39 21 -39 54z" />
<glyph unicode="&#x3e;" horiz-adv-x="589" d="M94 233q0 29 123 123q168 129 242 205q-113 98 -252 197q0 2 -41 37.5t-41 52.5q0 18 22.5 31.5t42.5 13.5q41 0 193 -117l143 -112q106 -86 107 -109q0 -4 -6 -25l-211 -170q-57 -57 -154 -135q-55 -45 -100 -45q-20 0 -44 17.5t-24 35.5z" />
<glyph unicode="?" horiz-adv-x="987" d="M86 952q0 270 377 287l8 8q25 4 55 4q160 0 299 -75q166 -90 166 -240q0 -23 -17.5 -73t-31.5 -68q-8 -10 -33 -39q-49 -59 -129 -97q-59 -27 -219 -84q-47 -16 -53 -45q4 -37 2 -106q-4 -12 -41 -31q-12 -4 -29 -4q-88 0 -88 113q0 88 78 139q37 25 160 64 q113 37 143 65q33 20 80 72q27 66 27 119q0 51 -53.5 102t-106.5 57l-148 19q-125 0 -192 -29q-109 -45 -109 -172q0 -59 119 -195q6 -6 6 -32q-16 -10 -43 -35q-23 8 -43 8q-2 0 -7 -2t-7 -2q-25 0 -80 70q-90 112 -90 202zM362 111q0 18 38 38.5t59 20.5q82 0 82 -68 q0 -12 -21.5 -38.5t-34.5 -26.5h-26q-35 0 -66 20.5t-31 53.5z" />
<glyph unicode="@" horiz-adv-x="1394" d="M106 604q0 156 138 350q98 139 209.5 197.5t279.5 58.5q246 0 418 -108q201 -129 201 -361q0 -23 -35 -120q-18 -78 -89 -132.5t-153 -54.5q-4 0 -14 2t-14 2q-33 0 -104 42t-85 71q-33 -78 -143 -131q-57 -27 -105 -27q-66 0 -132 58.5t-66 121.5q0 193 229 287 q25 10 143 12q4 0 11.5 -5t11.5 -5t9 2t9 2q20 0 78 -39q2 -74 47 -163q57 -117 146 -117q10 4 22 8q29 0 62 86q27 72 26 94q0 195 -151 297q-135 90 -334 76l-6 -8q-145 14 -307 -158q-55 -57 -99 -154q-49 -102 -49 -174q0 -152 190.5 -324.5t344.5 -172.5q6 0 21 2t22 2 q18 0 98 39q35 16 76 63q59 68 75 80q14 6 43 21q0 -10 7 -11q6 0 5 2t3 2q10 0 28.5 -23.5t18.5 -35.5q0 -41 -68 -104q-55 -53 -94 -74q-147 -80 -237 -80q-8 0 -26.5 3t-25 3t-15.5 2t-13 2q-18 0 -111 33q-80 29 -92 37q-123 63 -236 184q-125 133 -157 252 q-11 37 -11 88zM557 604q0 -20 17.5 -61t33.5 -41h25q45 0 94 86q45 80 45 131q0 68 -22 67q-61 0 -127 -60.5t-66 -121.5z" />
<glyph unicode="A" horiz-adv-x="1617" d="M76 70q0 10 13 27.5t22 21.5q74 18 196 22q25 4 86 166l76 201q-23 10 -47 18q-37 16 -37 35q0 29 39 47q33 14 65 15q6 0 5 -2h4q16 0 51 116l55 185q27 86 107 305q-6 6 -11 6q-25 0 -170 -35q-18 0 -54 18.5t-42 32.5q39 72 180 84q39 2 134 6q55 18 73 19 q68 0 144 -47q-2 -27 -23 -68q0 -10 66 -178l84 -215l258 -680q195 18 209 18q80 0 79 -51q0 -25 -26.5 -44t-50.5 -21l-381 -21q-2 0 -82 4l-82 4q-4 0 -12.5 6.5t-14.5 6.5q-4 0 -3 -2t-5 -2q-14 0 -42 18t-28 33q0 66 117 65q8 0 36 -9t36 -9h74q4 -4 4 6q0 14 -123 340 q-6 15 -36 15q-12 0 -28 -3q-14 0 -8 -6q0 2 -12 10h-37l-293 -10q-20 0 -59 -102l-58 -152q-16 -33 -45 -106h154q-6 0 14 -4q29 -6 72 -11q41 -12 41 -49q0 -23 -30 -40t-54 -17q-14 0 -49 7t-49 5l-365 -31q-22 -2 -41 -2q-96 1 -96 54zM664 629l325 8q4 0 12 -8v26 l-174 471q-100 -243 -163 -497z" />
<glyph unicode="B" horiz-adv-x="1097" d="M68 1247q0 43 120 80q94 29 129 29t103.5 10t103.5 10q125 0 285 -53q197 -66 197 -160q0 -74 -58 -151q-51 -68 -123 -111q125 -49 152 -61q135 -66 178 -189q23 -70 23 -129q0 -111 -172 -239q-131 -98 -254 -142q-158 -55 -211 -55h-125l-29 -12q-29 -14 -55 -15 q-6 0 -5 4.5t-3 4.5t-3 -2.5t-6 -2.5q-51 35 -79 35q-10 0 -30 -2t-30 -2q-86 0 -86 51q8 12 21 43q2 0 8 -4q35 20 35 23h114v627l19 397q0 4 -6 10q-6 -2 -64 -27q-49 -20 -55 -20q-23 0 -56 16q-38 19 -38 37zM412 758l4 -559q22 -5 50 -6q14 0 30 2q55 4 65 4 q66 0 215.5 72.5t184.5 123.5q61 70 61 82v111q0 80 -125 155q-113 70 -199 70q-18 0 -49 -10q-100 -10 -231 -17q-4 -38 -6 -28zM412 930q0 -10 8 -27h16q-3 0 -3 1q0 3 77 18q74 6 182 53q164 72 164 170q0 49 -111 90q-92 35 -143 35q-102 0 -174 -13v-35q0 -74 -6 -184 q0 -14 -6 -55q-4 -33 -4 -53z" />
<glyph unicode="C" horiz-adv-x="1128" d="M76 514q0 213 133 436q68 115 180 201q129 100 244 100q72 0 178 -41q119 -45 147 -96q4 -8 23 -18q8 27 20 135q10 78 37 78q117 0 117 -70q0 -23 -15.5 -94.5t-17.5 -100.5q-2 -55 -10 -206q0 -18 -25.5 -35t-46.5 -17q-45 0 -69 27q-18 53 -72 170q-41 70 -108 117 q-76 49 -152 49q12 0 -35 -14q-141 -43 -293 -291q-80 -131 -80 -326q0 -274 244 -350q25 -10 75 -26.5t103 -16.5q12 0 39 3t39 3q33 0 84 29q4 2 16.5 15t18.5 13q4 0 5 -2t5 -2q16 0 54 55.5t71 55.5q78 0 78 -72q0 -6 -23 -39q-43 -63 -127 -98q-33 -14 -147 -55 q-10 6 -39 0t-47 -13h-92q-8 0 -27.5 3.5t-28.5 3.5q-41 0 -153 51q-90 41 -109 53q-194 131 -194 385z" />
<glyph unicode="D" horiz-adv-x="1157" d="M76 92q0 33 55 53q45 16 86 17q14 10 16 67l-1 -28q-1 0 -1 127v127q0 12 5 63l2 62l-11 618q-35 -6 -55 -6q-23 0 -59.5 24.5t-36.5 45.5q0 12 15 24t28 12q29 2 129 15q4 0 18.5 7t18.5 7t30.5 -8t34.5 -10q123 -18 139 -19q61 0 160 -24q205 -51 330 -174 q141 -139 141 -338q0 -240 -252 -488q-106 -104 -352 -168q-49 -4 -147 -20q-4 -10 -19 -25q-33 -20 -57 -20q-6 0 -21.5 2t-20.5 2t-21.5 9t-20.5 9q-12 0 -34.5 -5t-35.5 -5q-18 0 -40.5 14.5t-22.5 32.5zM369 993l20 -383q0 -23 -6 -133q-1 -23 -1 -57q0 -84 7 -232 q59 8 78 9q43 0 123 34q156 68 264 209q115 150 115 312q0 256 -267 389q-53 27 -110 26h-6q-2 -2 -6 -2q-31 0 -94.5 14.5t-94.5 14.5h-12z" />
<glyph unicode="E" horiz-adv-x="1185" d="M41 43q0 25 30.5 43t57.5 18q6 0 17.5 -2t17.5 -2q39 0 47 11q8 72 8 133v104q0 31 4 88.5t4 83.5v635q0 16 -59 16q-4 0 -3 -2t-3 -2q-18 0 -54 27t-47 45q8 29 39 35h47q14 0 41 -2t41 -2q4 0 15.5 8t15.5 10t33 2q23 0 80 -18q16 0 86 -2l243 -8q31 0 82 -5 q9 -1 20 -1q31 0 78 10q62 12 89 12q10 61 76 61q82 0 88 -73l22 -322q4 -68 -70 -67q-39 0 -75 38q-4 4 -19 101q-2 57 -20 145q-77 -13 -158 -13q-20 0 -41 1l-338 12q-8 0 -25.5 -2t-25.5 -2q0 -20 -7 -61t-7 -62v-190q0 -8 3 -24.5t3 -24.5q0 -70 2 -74q6 -14 37 -14 q6 0 47 -2l43 -3h135q7 12 7 40q0 11 -1 24q-7 69 -8 69v-1q0 20 24.5 37.5t45.5 17.5q12 0 47 -12.5t37 -19.5t14 -161l14 -190q2 -18 -15.5 -43t-35.5 -25h-27q-18 0 -46.5 12.5t-37.5 26.5q1 8 1 20q0 33 -5 93q-10 6 -118 12q-98 6 -134 6h-32q5 -25 4 -58v-24l-4 -82 v-329q12 -6 24 -6l228 22q18 0 58 6t54 6q109 6 185 9q8 12 8 30q0 8 -6 41q-6 27 -4 35q0 23 20 52.5t43 29.5q84 0 92 -98q4 -61 6 -101l13 -18q10 -20 10 -27q0 -25 -70 -59l-8 8q-23 -4 -61 -4q-4 0 -5.5 -4t-7.5 -4h-194q20 0 19 -2q0 -3 -126 -15q-143 -14 -215 -18 q-12 -2 -64.5 -6t-76.5 -4q-31 0 -91.5 2t-90.5 2q-16 0 -43 18.5t-27 32.5z" />
<glyph unicode="F" horiz-adv-x="1091" d="M41 1272q0 33 43 39q95 13 206 12h32l573 -10q14 0 42 3t42 3q27 0 57 -14q45 -20 45 -56q0 -4 -5 -17t-5 -20q0 -84 -10 -208q-4 -39 -47 -39q-8 0 -23.5 2t-23.5 2q-16 0 -62 45q6 135 6 178q-39 23 -438 22q-10 0 -57 -6q-2 -2 -6 -8q-8 -88 -9 -176v-340h224 q0 4 2 12.5t2 12.5q0 16 -8.5 49t-8.5 49q0 86 76 86q41 0 78 -29q11 -8 11 -59q0 -15 -1 -33q0 -20 8 -82l7 -53q0 -55 -9 -119q-14 -106 -41 -106h-32q-94 0 -95 86q0 23 7 73q-33 6 -119 7q-70 0 -94 -21v-397q8 -6 12 -6q25 0 77 10t76 10q88 0 89 -55q0 -18 -20.5 -37 t-39.5 -19q-8 0 -25.5 2.5t-25.5 2.5q-248 -45 -281 -45q-4 0 -55 -3l-55 -2q-31 0 -92 43q12 53 77 64q25 4 101 10q18 35 18 174q0 4 -8 84q-2 94 -14 209q-14 20 -15 19l23 47l4 465v26q-2 18 -2 27q0 20 -35 20q-10 0 -33.5 -2t-33.5 -2q-27 0 -68 23.5t-41 46.5z" />
<glyph unicode="G" horiz-adv-x="1269" d="M76 629q0 252 190 438q47 47 189 117q127 63 237 63q12 0 49 -7l47 -9q121 -14 224 -101l8 89q12 51 57 51q10 0 38 -10.5t30 -16.5q12 -41 12 -170q0 -14 -3 -41.5t-3 -42.5v-110q0 -70 -70 -70q-57 0 -69 31q-63 162 -113 227q-23 29 -90.5 55.5t-108.5 26.5 q-59 0 -155 -43q-313 -139 -314 -481q0 -379 351 -457q111 -25 139 -25h12q57 0 109 74q14 23 76 137q14 25 43 168q-18 10 -97 10q-6 0 -20.5 -4t-20.5 -4q-61 0 -131 11q-121 18 -121 53q0 16 32 38.5t50 22.5q6 0 17.5 -3t16.5 -3t85 -4l84 -4l307 8q14 0 40 -19.5 t26 -33.5q0 -16 -17 -37q-12 -6 -24 -14q-23 -12 -23 -23l35 -299v-96q0 -12 7 -37t7 -37q0 -29 -31.5 -46t-62.5 -17q-37 0 -51 24q-10 14 -16 129q-2 57 -9 152l-6 6q-70 -127 -125 -180q-82 -78 -198 -78q-287 0 -459 149q-180 160 -180 443z" />
<glyph unicode="H" horiz-adv-x="1462" d="M90 1159q0 33 53 41h58q47 2 164 6q23 0 75 23q6 0 20.5 -6t20.5 -6q8 0 26.5 2t27.5 2q39 0 79 -13q55 -16 56 -45q0 -55 -101 -55q-16 0 -32 4q-10 -27 -11 -61v-123q0 -14 -4 -43t-4 -43v-248q0 -16 35 -12q18 0 106 -4l105 -5l369 21q45 2 55 10q-2 59 -2 88 q0 31 2 33q-14 106 -14 162v98q0 61 -23 141q-47 4 -55 4q-10 0 -28.5 -2t-29.5 -2q-23 0 -55.5 17.5t-32.5 36.5q0 57 148 57q10 0 32.5 -2t32.5 -2q8 0 31 5t33 5q6 0 18 -3t21 -3q20 0 62 -5t62.5 -5t43 -19.5t22.5 -40.5q0 -39 -55 -45q-29 -2 -88 -10q12 -63 14 -188 l4 -170q16 -213 17 -234v-129l14 -317q35 -2 104 -8q61 -6 62 -54q0 -12 -20.5 -33.5t-32.5 -21.5q-16 0 -50 4t-51 4l-332 -31q-27 0 -53 11q-35 14 -35 39q0 49 113 57q27 2 141 22l-12 390q-2 43 -18 43q-6 0 -20.5 -5.5t-20.5 -5.5q-18 -2 -117 -2q-14 0 -44 -5t-44 -5 q-4 0 -86 -2l-88 -2l-217 10q-12 0 -25 -6l-4 -192q-4 -115 -20 -193q47 -6 96 -10q63 -14 63 -53q0 -25 -27.5 -40.5t-54.5 -15.5q-12 0 -39.5 3t-40.5 3q-23 0 -55.5 -7t-40.5 -7q6 0 -43 14q-14 4 -26 5q-207 14 -207 53q0 23 34.5 44t59.5 21h10l45 -6q45 -6 68 -6 q18 12 22 104l6 160l17 744h-156q-31 0 -73 16q-60 22 -60 49z" />
<glyph unicode="I" horiz-adv-x="585" d="M53 49q0 18 39 41t60 23q-31 0 41 -8q56 -6 75 -5h8l27 314v223l27 496q-6 6 -11 6q-14 0 -50 -6.5t-50 -6.5q-27 0 -63 19q-43 20 -43 45q0 27 59 41q43 12 82 12h41q14 0 29 -2h12q6 0 18.5 3t18.5 3l12 -4q2 0 9 4t14 4q221 0 221 -61q0 -18 -23.5 -34.5t-42.5 -16.5 q-10 0 -28.5 3t-28.5 3q-31 0 -33 -78q0 -57 -6 -207q-35 -629 -35 -737v-19q2 -4 21 -4q111 0 110 -51q0 -57 -108 -57q-6 0 -97 -2l-98 -2q-4 0 -61 4l-62 4q-18 0 -51 18.5t-33 34.5z" />
<glyph unicode="J" horiz-adv-x="929" d="M76 344q0 61 24 123q33 84 97 84q68 0 67 -49q0 -12 -14 -31q-16 -25 -19 -33q-12 -35 -12 -90q0 -180 135 -221q12 -12 35 -25q47 -27 98 -26q201 0 201 311v86q0 92 -35 297l-59 356q-14 1 -31 1t-37 -1q-39 -2 -47 -4q-41 0 -86 15q-57 20 -57 51q0 20 25.5 36.5 t48.5 16.5q12 0 35.5 -4t35.5 -4q70 0 205 26.5t201 26.5q23 0 54.5 -17.5t31.5 -39.5q0 -8 -12.5 -25.5t-21.5 -19.5t-99 -10q-61 -6 -99 -27l99 -596v-176l-9 -37q-8 -39 -10 -57q-2 -135 -119 -228q-109 -84 -247 -84h-21q-27 0 -69 19q-150 63 -209 127q-80 84 -80 229z " />
<glyph unicode="K" horiz-adv-x="1505" d="M68 43q0 18 33.5 42t52.5 24q-4 0 178 -35q4 2 8 8q6 41 16 229l6 111l5 524q0 37 20 236l-8 8q-7 -1 -17 -1q-33 0 -100 11q-115 18 -115 60q0 6 16.5 25.5t20.5 19.5l187 -9q14 0 41.5 6.5t40.5 6.5q4 0 5 -4.5t5 -4.5q211 0 211 -63q0 -37 -66 -47l-67 -4 q-12 -37 -15 -103q-2 -98 -4 -110l-4 -314l6 -6l326 314l229 192q-23 0 -67 -2l-47 -4h-5q-19 0 -63 14q-49 16 -49 35q0 33 84 53q49 12 108 15l349 12q25 0 54.5 -21.5t29.5 -43.5q0 -37 -78 -43l-95 -7q-31 -16 -221 -176q-201 -168 -200 -188q0 -20 133 -234l168 -266 l67 -117q39 -68 51 -123q20 -8 107 -8q6 0 20.5 4t20.5 4q18 0 40.5 -19t22.5 -36q0 -18 -27.5 -39.5t-45.5 -21.5h-242q-4 0 -14.5 2t-14.5 2q-10 0 -29.5 3t-29.5 3q-51 0 -111 16q-80 23 -80 54q0 25 34 44t61 19q12 0 49 -9t49 -9h14q2 2 2 6q0 37 -252 430l-110 188 q-25 -14 -170 -166q0 -16 -35 -31.5t-37 -29.5q-2 -2 -16 -264q0 -10 -4 -32.5t-4 -35.5q0 -41 2 -45q6 -14 37 -14q10 0 31.5 2t31.5 2q23 0 47 -12q29 -18 29 -43q0 -35 -35 -50q-4 -2 -92 -8q-109 -8 -156 -8q-49 0 -168 21q-155 26 -155 61z" />
<glyph unicode="L" horiz-adv-x="1122" d="M39 14v13q0 20 31.5 40.5t52 20.5t60.5 2t61 2q37 0 42 4t5 37l-4 217q12 100 12 307l45 482q-6 6 -8 6q-12 0 -63.5 -14.5t-73.5 -14.5q-20 0 -56.5 20.5t-36.5 39.5q0 29 103 51q51 10 156 28q31 18 55 19q18 0 61 -7t62 -7q4 0 9 2t9 2q29 0 69 -17.5t40 -42.5 q0 -23 -27 -37t-53 -14q-6 0 -26.5 6t-28.5 6q-4 0 -12.5 -2t-12.5 -2q-14 -47 -23 -137l-12 -143q-8 -55 -20 -199q-2 -49 -2 -276q0 -23 -4 -82l-7 -60q0 -2 9 -86q3 -33 3 -52.5t-3 -25.5q43 -14 47 -14l456 4q8 0 19 76l16 119q8 10 39 24.5t45 14.5q10 0 32.5 -13.5 t22.5 -21.5v-103l-6 -67q-6 -68 -8 -99q-4 -18 -37 -29t-55 -11h-61q-10 0 -39 8t-39 8q-4 0 -47 -2l-52 -2l-211 -12q-23 -2 -63 6q-47 6 -66 6q-10 0 -33.5 -8.5t-31.5 -8.5h-37q-18 0 -58 8.5t-63 8.5q-12 0 -35.5 -2t-35.5 -2q-62 -1 -111 26z" />
<glyph unicode="M" horiz-adv-x="1708" d="M45 -49q0 25 39 45q33 18 59 18q14 0 44 -2t44 -2q51 0 64 4q31 10 31 49q0 14 -2 45t-2 48l4 516q-2 29 -7 172q0 8 7 112l4 101q0 12 -19 12q-6 0 -78 -2l-77 -4q-27 0 -66 16q-45 18 -45 39q0 23 33 37q27 12 53 12q51 0 252 17l23 8q20 6 47 6q6 0 63 -8 q12 -10 31 -31l379 -543l137 230q49 78 115 213q49 102 79 133q8 8 23 20q10 -2 28.5 3.5t24.5 5.5q20 0 62.5 -13.5t62.5 -13.5q10 0 32.5 2t33.5 2q190 0 190 -70q0 -25 -24.5 -40t-51.5 -15q-12 0 -42.5 6t-43.5 6q-4 0 -14 -2t-14 -2q-6 0 -8.5 4.5t-8.5 4.5 q-14 0 -51 -15q23 -238 23 -307q0 -31 -4 -184l-9 -295q-10 -51 -10 -76q8 -145 8 -184q49 -10 109 -11q14 0 43 3.5t43 3.5q70 0 70 -50q0 -16 -34 -37.5t-53 -21.5q-4 0 -75 -2l-76 -2l-332 22q-74 4 -74 41q0 20 33 43t56 23q20 0 53 -4q14 -2 29 -2q23 0 51 4l18 772 l-18 186q-51 -106 -140 -247q-33 -49 -127 -205q-12 -37 -43 -94q-23 -29 -57 -29q-63 0 -88 29l-147 223l-226 336v-559q2 -4 -4 -89l-6 -88q0 -12 4 -67l4 -74v-96h115q41 0 80 -12q55 -16 55 -48q0 -23 -30.5 -44t-55.5 -21q33 0 -36.5 7t-96.5 7l-322 -28 q-141 0 -141 53z" />
<glyph unicode="N" horiz-adv-x="1515" d="M94 45q0 25 47 47q35 16 49 17q20 0 63.5 -13.5t63.5 -13.5q23 0 23 121v96q0 59 4 211q3 89 3 153q0 32 -1 58q-1 74 -1 120t1 64q2 41 10 121v143l-6 7q-90 -23 -129 -23q-16 0 -54 20.5t-38 34.5q0 25 31 41q25 14 51 15q2 0 7 -2t9 -2q170 33 187 32q68 0 86 -28 q6 -10 8 -37q78 -86 321 -418l388 -518q18 25 22 59q1 8 1 19q0 21 -3 51q-4 53 -4 69v105l14 127q12 119 15 174q6 111 10 238q-12 6 -19 6q-6 0 -57 -4l-55 -5q-33 0 -68 15q-43 16 -43 45q0 18 35 37.5t55 19.5l379 13q4 0 6 -4.5t6 -4.5q2 0 7.5 2t9.5 2q20 0 50 -18 t30 -39q0 -18 -27 -38.5t-47 -20.5q-4 0 -47 2l-49 2q-18 0 -19 -78v-137q0 -4 -5 -18.5t-5 -22.5q-25 -197 -25 -340v-137l-6 -9l-10 -161q2 -50 2 -98.5t-2 -94.5q-2 -51 -90 -51q-41 0 -51 12l-219 309l-504 701q-12 -80 -12 -117q0 -4 8 -129l8 -131q0 16 -1 16t-6 -99 q-7 -138 -7 -167q0 -8 3 -26.5t3 -26.5l-19 -201q0 -47 21 -47q14 0 40.5 4t41.5 4q154 0 153 -51q0 -27 -29.5 -49.5t-56.5 -22.5q-12 0 -39.5 4.5t-42.5 4.5l-280 -15h-6q-30 0 -97 19q-92 24 -92 57z" />
<glyph unicode="O" horiz-adv-x="1370" d="M98 465q0 127 88 334q33 47 62 100q68 123 162 203q61 51 164.5 95t177.5 44q35 0 86 -31q190 -47 235 -67q104 -49 166 -168q23 -45 64 -234q6 -29 6 -116q0 -215 -66 -344q-8 -16 -108 -117q-74 -74 -166 -113q-39 -16 -172 -55q-41 -12 -113 -12q-131 0 -301 77 q-182 86 -236 193q-49 94 -49 211zM250 463q0 -43 22.5 -105.5t51.5 -97.5q39 -49 184 -110q129 -55 194 -56q143 0 271 80q152 96 170 250q10 35 22 96q2 37 2 72t-2 67q-6 82 -20 134q-29 96 -39 122q-37 88 -109 129q-45 25 -166 58q-8 2 -49 17.5t-45 15.5 q-41 0 -96 -31q-145 -39 -272 -266q-119 -211 -119 -375z" />
<glyph unicode="P" horiz-adv-x="1032" d="M53 29q0 29 34 49t65 20h-4q0 -2 88 -12q10 84 10 90v297l-15 279q0 2 5 77l2 76v94q0 18 4 53t4 54q0 8 -6 29q-53 -16 -58 -17q-20 0 -55 19q-41 18 -41 34q0 29 74 58q168 63 375 63q188 0 329 -94q162 -109 162 -289q0 -172 -190 -282q-23 -20 -72 -56 q-170 -84 -307 -84h-60v-381q2 -4 11 -12h10q8 0 106 19q74 0 74 -50q0 -66 -109 -71q-27 0 -77 -6q-10 0 -35 -6.5t-33 -6.5h-156q-35 0 -75 13q-60 18 -60 43zM385 795l12 -205h78q113 0 244 92q147 102 147 227q0 141 -104 213q-90 61 -238 62q-92 0 -118 -13 q-23 -333 -21 -376z" />
<glyph unicode="Q" horiz-adv-x="1306" d="M72 522q0 158 57 279q39 80 141 184q94 96 181 152q55 35 176 70.5t184 35.5q27 0 61.5 -19.5t34.5 -43.5q-2 -4 -14 -17l147 -55q92 -39 144 -133q66 -123 65 -217v-103q0 -12 -32 -159q-12 -31 -27 -90q-12 -123 -127 -228q-102 -94 -232 -129q4 -57 48.5 -106 t99.5 -49q14 0 64.5 20t62.5 20q55 0 55 -32q0 -43 -98 -78q-80 -29 -123 -29q-172 0 -244 178q-23 57 -28 64q-4 0 -3 -2t-6 -2q-147 0 -231 43q-143 74 -240 180q-116 129 -116 266zM223 518q0 -59 21 -106q35 -80 163 -176.5t209 -96.5q6 0 19.5 -2t19.5 -2t15 8v37 q0 59 -13 121q-23 111 -73 111q-4 0 -12.5 -2t-12.5 -2q-23 0 -47 10q-31 12 -31 33q0 27 64 43q47 12 69 12q129 0 177 -125q29 -76 30 -227q168 78 215 198q20 51 45 166t25 164q0 57 -4 98t-33 106.5t-57.5 98.5t-77.5 53q-41 16 -141 37q-10 2 -22.5 15.5t-12.5 23.5 q0 4 3 11.5t3 9.5h-16q-55 0 -183 -76q-111 -66 -151 -109q-109 -111 -142 -178q-49 -100 -49 -254z" />
<glyph unicode="R" horiz-adv-x="1388" d="M53 106q0 27 56 48q43 16 77 16q6 0 20.5 -2t22.5 -2q43 0 50 10q4 131 12 475l4 312l22 211q0 25 -10 24q-12 0 -38.5 -3t-39.5 -3q-29 0 -75 12q-68 18 -68 45q0 33 55 43q72 2 217 11q66 20 121 30q90 16 180 17q154 0 291 -60q193 -84 193 -241q0 -41 -13 -91 q-45 -176 -311 -251l-14 -5q-37 -14 -37 -26q0 -16 102 -129l138 -156q12 -14 112 -151q57 -78 76 -78q4 0 57 4l58 4q43 0 43 -45q0 -16 -14.5 -32.5t-30.5 -16.5q-4 0 -92 -8l-93 -9q-4 0 -11 -2t-11 -2q-6 0 -9 4t-10 4l-198 -8h-6q-58 0 -58 39t86 56q49 4 101 10 q-25 35 -260 317l-71 86q-58 72 -65 72q4 0 4 -1q0 -4 -159 -30q-18 -43 -19 -168v-98q0 -51 -2 -95t-2 -38q0 -35 51 -35q117 0 117 1l-6 1q74 -6 74 -55q0 -25 -31 -41.5t-57 -16.5q-20 0 -61.5 4.5t-61.5 4.5h-82l-240 -5q-23 0 -53.5 12.5t-30.5 30.5zM446 707h35 q106 0 338 110q168 80 168 242q0 106 -117 153q-84 35 -208 35q-129 0 -181 -39q-31 -203 -35 -360v-141z" />
<glyph unicode="S" horiz-adv-x="970" d="M41 -39q12 68 33 397q8 8 40.5 21.5t43.5 13.5q8 0 29.5 -9t23.5 -15q2 -27 16 -72q70 -106 162 -143q66 -27 184 -27q104 0 170 34t66 91q0 150 -119 219q-84 49 -264 76q-162 2 -249 91t-87 251q0 145 100 325q57 102 261 103q154 0 270 -125q6 10 4 29q-2 20 -2 26 q6 16 31.5 23.5t33.5 15.5q2 -4 27 -10t33 -25.5t8 -68.5q0 -63 -20 -326q-20 -39 -32.5 -39t-33 -2t-31.5 -2q-4 0 -22.5 10.5t-20.5 14.5q-12 150 -69 249q-78 137 -217 138q-84 0 -138 -129q-41 -100 -41 -189q0 -27 19 -123q2 -8 20 -34q31 -43 47 -58q10 -10 75 -29.5 t102 -19.5q164 0 297 -78q166 -96 165 -274q0 -111 -96 -189q-88 -74 -203 -73q-10 0 -29.5 -3t-29.5 -3h-123q-135 0 -268 86q-4 -4 -8 -15q-10 -98 -21 -119q-18 -37 -88 -36q-16 -1 -49 22z" />
<glyph unicode="T" horiz-adv-x="1271" d="M94 1292q0 23 37 39q31 10 57 10h203q25 2 156 11l155 10l490 -8q106 -2 106 -47q0 -6 -5 -18.5t-5 -18.5q-8 -55 -28 -164q-16 -74 -56 -74q-6 0 -15 -2t-15 -2q-20 0 -46 15.5t-26 33.5q0 -3 0 -2q3 0 26 156q-27 14 -108 16q-37 0 -105 6l-71 7q-20 2 -39 -11v-106 q12 -25 12 -103q0 -27 -5 -79t-5 -78q0 -45 -2 -176q-2 -150 -2 -246q0 -86 -2 -301l-19 -66h195q63 0 63 -51q0 -16 -17 -39.5t-34 -23.5h-121q-8 0 -24.5 -3.5t-24.5 -3.5q-4 0 -18 2h-19q-4 0 -12 -3t-12 -3t-12.5 2t-12.5 2t-10 -4t-12 -4q-4 0 -105 2l-106 2 q-33 0 -76 11q-57 14 -57 36q0 23 22.5 46.5t44.5 23.5h58q125 -2 129 -2q23 35 24 86v80q0 31 2 151q4 63 8 193q1 30 2 56q0 65 -8 104q2 -4 8 20q-2 18 0 55q4 68 5 54v366l-394 -12q-4 -16 -4 -47q0 -61 -2 -107q0 -37 -6 -133q-4 -12 -22.5 -27.5t-30.5 -15.5 q-6 0 -17.5 2t-17.5 2q-12 0 -62 31q18 147 19 297l-29 43q-2 6 -2 10z" />
<glyph unicode="U" horiz-adv-x="1402" d="M98 1231q0 55 119 55q6 0 15.5 -2t15.5 -2q63 0 86 4q6 10 26 25q12 6 52 6q16 0 40.5 -13.5t41.5 -13.5q18 0 54 5t54 5t39 -12t21 -28q0 -43 -41 -60q-18 -6 -80 -8q-45 0 -49.5 -5t-6.5 -48l-24 -375q0 6 -3 -10.5t-5 -44.5q-2 -39 -15 -144q2 -62 2 -94.5t-2 -34.5 q-1 -10 -1 -19q0 -104 102 -198q111 -102 227 -102h57q4 0 11.5 5t11.5 5q63 6 133 78q63 66 84 133q49 127 49 178v23q14 31 18 71q2 12 19 138q12 84 12 139q0 4 -2 9t-2 9v34q0 245 -29 245q-6 0 -12 -5t-8 -5q-106 -29 -137 -29q-18 0 -41 19.5t-23 35.5q0 37 152 80 q131 37 170 37q29 0 85 -4t85 -4q16 0 38.5 -18.5t22.5 -33.5q0 -25 -30.5 -42t-57.5 -17q-8 0 -26.5 2t-26.5 2q-25 0 -25 -20q0 -6 4.5 -20.5t4.5 -20.5q2 -37 10 -103v-102q-10 -37 -10 -88q0 -106 -23 -246q-63 -391 -272 -526q-41 -27 -114 -51.5t-118 -24.5h-88 q-25 0 -99.5 27.5t-99.5 44.5q-203 135 -202 319v166l47 428v193q-4 8 -19 8q-10 0 -29.5 -5t-29.5 -5q-158 0 -158 55z" />
<glyph unicode="V" horiz-adv-x="1486" d="M57 1278q0 51 109 53l358 8q18 0 42 -15t24 -34q0 -49 -96 -53h-7q-27 0 -81 -14v-15l98 -313q8 -18 28 -70q98 -297 295 -565q53 82 99 225l239 746q-6 6 -12 6l-199 -4q-31 0 -61 16q-37 18 -37 47t53 45q39 12 76 13l399 -8q102 -2 103 -64q0 -14 -18.5 -35.5 t-32.5 -21.5h-95q-14 0 -36 -56l-111 -331l-188 -521q-29 -82 -103 -237q-2 -4 -27.5 -16.5t-31.5 -12.5q-47 0 -60 15q-27 41 -86 118q-76 119 -213 369q-29 55 -92 203l-74 207q-2 18 -51 188q-23 78 -28 78q-12 0 -35 -2t-35 -2q-33 0 -68 12q-45 16 -45 41z" />
<glyph unicode="W" horiz-adv-x="2336" d="M76 1231q0 61 112 61h21q72 -10 88 -10q4 0 6 4t8 4q12 0 58 -2l57 -2q45 0 134 15.5t132 15.5q53 0 53 -47q0 -33 -29.5 -52.5t-62.5 -19.5q-84 0 -153 -24l264 -734l53 -166q39 92 62 156q27 113 120 408l129 340l-6 6q-14 -8 -77.5 -21.5t-81.5 -13.5q-29 0 -64 18 q-41 23 -41 47q0 10 23.5 29t36.5 23l188 28q147 23 367 23q16 0 37.5 -18.5t21.5 -32.5q0 -16 -18.5 -40t-34.5 -24l-60 -2q-59 -2 -88 -2q-2 -2 -2 -10q0 -23 31 -90q29 -150 110 -332l136 -287q12 -35 41 -106q25 -59 57 -82q29 68 80 303l82 254q41 131 67 258 q23 41 23 57v15q-5 7 -21 7q-19 0 -55 -11q-96 -31 -104 -31q-20 0 -61.5 16.5t-41.5 30.5q0 53 137 90q104 29 160 29q43 0 150 -4q64 -3 110 -3q23 0 41 1q20 0 48 -18.5t28 -39.5q0 -66 -74 -65q-8 0 -26.5 4t-26.5 4t-21.5 -2t-21.5 -2q-41 0 -59 -4l-138 -471 q-43 -150 -88 -285l2 -39q0 2 -4 8q-4 -25 -61 -184q-2 -25 -14 -70l-21 -49q-12 -31 -33 -43q-25 -18 -67 -18q-49 0 -72 32l-41 82q-49 92 -127 277l-131 285q-70 158 -104 270q-6 0 -11 -6q-55 -119 -102 -281q-25 -92 -80 -274q-35 -109 -80 -205q-39 -111 -43 -119 q-35 -76 -84 -76q-41 0 -59 17q-14 10 -39 55q-39 68 -70 174l-49 164q-39 123 -151 438l-121 322h-97q-33 0 -81 8q-76 12 -76 39z" />
<glyph unicode="X" horiz-adv-x="1617" d="M49 25q0 20 43 43q37 18 62 18q10 0 53 -2l53 -2h109q20 0 422 465q-274 360 -324 446q-57 100 -64 101q-6 0 -55 -2l-55 -2q-145 0 -146 59q0 10 18.5 28.5t29.5 20.5q33 -1 80 -1t108 1q6 0 17.5 6t15.5 6t10 -2t10 -2t8.5 2t8.5 2q37 0 129 -12q115 -14 129 -29 q8 -20 8 -32q0 -23 -23.5 -41.5t-46.5 -18.5l-31 4q-29 4 -34 0q49 -78 137 -196l164 -219q203 180 368 450q-18 6 -61 -2q-53 -10 -64 -10q-27 0 -65 18q-45 23 -45 45q0 45 133 62l395 8q10 0 38 -27.5t28 -40.5q0 -23 -32 -38t-56 -15q-12 0 -38 3t-38 3q-20 0 -33 -20 q-90 -145 -192 -262l-146 -166l-104 -113q16 -33 74 -96q29 -29 83 -90l117 -131l94 -119q78 -96 91 -96q61 0 204 -6q41 -18 41 -48q0 -31 -34.5 -52t-67.5 -21q-14 0 -45 4t-45 4h-82q-35 0 -55 -2q-6 0 -84 -6l-84 -4q-4 0 -58 2l-59 4q-6 0 -19.5 17.5t-13.5 23.5 q0 74 170 74q9 0 19 -1l8 9q-33 45 -189 227q-162 188 -168 188q-10 -12 -63 -71q-72 -74 -248 -271l72 -4q53 -10 53 -47q0 -27 -25.5 -44t-52.5 -17q-10 0 -29.5 -4t-26.5 -4t-14.5 -2.5t-11.5 -2.5q-2 0 -7 2.5t-7 2.5q-12 0 -34.5 -7.5t-33.5 -7.5h-315q-18 0 -48 21 t-30 39z" />
<glyph unicode="Y" horiz-adv-x="1550" d="M94 1284q0 35 74 49q39 8 84 8h33q12 0 22 -2h10q6 0 7.5 3.5t7.5 3.5l4 -5h274q27 0 61 -15t34 -38q0 -14 -27 -36.5t-41 -22.5q-23 0 -67 4t-66 4q-10 0 -21 -10l99 -154q84 -145 153 -235l160 -199q115 137 385 610q-4 2 -12 2q-18 0 -54 -9t-53 -9q-6 0 -13 -4 t-11 -4q-8 0 -23.5 2t-23.5 2q-20 0 -40 26.5t-16 44.5q31 29 70 33q27 0 105.5 21.5t113.5 21.5h256q20 0 51 -19.5t31 -39.5q0 -61 -82 -62q-16 0 -50 4.5t-50 4.5q-20 0 -84 -109q-29 -53 -90 -156l-261 -403q-61 -96 -61 -137q0 -16 8 -56.5t8 -60.5l2 -92 q-4 -61 -4 -141l201 8q23 0 53.5 -17.5t30.5 -40.5q0 -20 -30.5 -43.5t-53.5 -23.5h-188q-6 0 -38 -29t-67 -29q-23 0 -51 17q-10 6 -33 37q-63 0 -149 -15q-8 10 -19 11q-4 0 -11 -5.5t-11 -5.5q-70 -4 -117 -4q-86 0 -86 56q0 31 59 51q47 18 86 18l261 6q14 109 14 176 q0 43 -12 185q-2 14 -17 39l-164 200q-131 168 -331 529q-20 0 -59.5 -6t-57.5 -6q-27 0 -70 21t-43 46z" />
<glyph unicode="Z" horiz-adv-x="1153" d="M63 23q0 8 62 94q55 76 74 98l293 346l327 473q29 31 68 101q-4 -4 -8 -5l-304 27h-266l-8 4q-18 -8 -33 -4q-8 -27 -6 -33q10 -103 10 -239q0 -107 -77 -107q-4 0 -9.5 4t-9.5 4q-53 0 -65 43q2 -6 6 125q0 -2 -4 156v102q0 2 -5.5 11.5t-5.5 15.5q10 16 43 35l9 8 q31 -12 157 -14l279 -4q2 0 100 -9l322 -26q37 -2 78 -35q0 -14 -3 -43q-221 -260 -360 -492q-59 -100 -192 -256q-176 -207 -259 -315l11 -10q6 0 106 12l105 10h278q49 0 142 -14q14 18 26 184q-2 12 -2 33q0 20 2 47q4 12 29.5 25.5t40.5 13.5q88 0 88 -88 q0 -16 -21 -190q-2 -18 -2 -37q0 -30 6 -58q-12 -14 -24 -34q-51 -20 -72 -21l-213 27q-10 0 -30.5 -2t-30.5 -2q-6 0 -17.5 2t-17.5 2q-29 0 -84 -2t-84 -2l-301 -27q-148 0 -148 66z" />
<glyph unicode="[" horiz-adv-x="552" d="M113 983q0 12 0 2q0 35 6 103.5t6 103.5q6 12 14 43q-2 6 -6 37q-4 27 8 49q8 14 51.5 30.5t63.5 16.5q4 0 12 -2h15q16 0 86 4l86 2q23 0 52.5 -20.5t29.5 -42.5q0 -29 -54 -43q-37 -10 -80 -11q-4 0 -14 2.5t-14 2.5q-33 0 -78 -11q-4 -2 -6 -10q0 -29 -6 -102l-9 -95 v-651q0 -6 2.5 -15t2.5 -16q0 -55 8 -176q10 -139 18 -139q10 0 47 2l45 2h31q10 0 21 2h10q23 0 46 -14t23 -37q0 -16 -13 -32.5t-26.5 -16.5t-34 -4t-30.5 -4q-4 0 -11 4t-12 4q-31 0 -90 -13.5t-88 -13.5q-66 18 -73 27.5t-13 79t-6 90.5q0 14 -4 78l-4 80v114 q0 268 -6 459q-2 49 -4 86q0 31 -2 45z" />
<glyph unicode="]" horiz-adv-x="587" d="M113 -47q0 23 32.5 47.5t55.5 24.5h8q2 -2 6 -2q10 4 82 24q10 162 25 354l22 295v541h-137q-33 0 -62 25q-12 10 -12 30q0 57 213 58q141 0 156 -54q6 -23 6 -51q-2 -4 -8 -10q0 -20 -6 -207q-4 -123 4 -156q0 -23 2 -133v-137q-2 -43 -13 -151q-31 -266 -30 -355 q0 -47 4 -84q-18 -18 -72 -47q-154 -45 -225 -45q-51 0 -51 33z" />
<glyph unicode="_" horiz-adv-x="1185" d="M86 207q0 47 84 59h90q94 6 322 15q72 2 405 2h100q82 -10 82 -60q0 -6 -14 -24.5t-20 -18.5q-4 0 -4.5 2t-4.5 2t-18 -9t-25 -9q-16 0 -51 4t-51 4l-303 -8q-23 4 -68 8l-448 -20q-18 0 -47 18.5t-29 34.5z" />
<glyph unicode="a" horiz-adv-x="921" d="M49 918q-2 8 -1 14q0 21 13 37q18 20 50 20q47 0 57 -51l37 -184v2q96 158 276 157q96 0 154 -125q45 -100 47 -200q0 -49 -2 -117l-4 -106v-68q0 -182 -1 -182l-1 20q4 -131 33 -149q72 0 73 102q2 59 62 59q62 0 61 -59q0 -97 -49 -160q-51 -68 -143 -67 q-115 0 -148 151q-94 -29 -201 -28q-236 0 -235 180q0 139 156 221q125 66 274 66q2 57 2 96q0 203 -80 244q-117 0 -180 -119q-20 -37 -76 -217q-16 -51 -61 -52q-60 0 -60 66q0 10 1 30.5t1 31.5q0 81 -14 167q-2 15 -41 220zM250 164q0 -57 112 -58q113 0 189 31 q-1 17 -1 40t1 50q2 57 2 70v31h-9q-84 0 -175 -37q-119 -49 -119 -127z" />
<glyph unicode="b" horiz-adv-x="921" d="M-135 1165q0 59 59 62q90 2 258 43q8 2 19 2q57 0 57 -62q0 -82 2 -246.5t2 -246.5q123 111 305 110q256 0 299 -297l2 -8q2 -25 6 -57h-16l23 -19l4 -57q1 -13 1 -25q0 -132 -99 -250q-108 -130 -273 -130q-145 0 -278 186q-14 -154 -15 -233q0 -61 -61 -62 q-61 0 -62 62q0 76 13 221l18 225q7 114 7 448q0 133 -1 302q-115 -27 -207 -29h-4q-59 -1 -59 61zM254 397q14 -12 18 -35q14 -72 93 -159q84 -96 149 -97q111 0 180 89q68 82 68 194q0 10 -2 37q-8 18 -15 84q-20 92 -51 135q-45 59 -127 60q-217 0 -286 -173 q-8 -18 -23 -28z" />
<glyph unicode="c" horiz-adv-x="903" d="M49 588q0 211 98 344q111 150 316 149q117 0 149 -8q72 -18 119 -88q2 53 2 133q0 61 62 62q61 0 61 -62q0 -313 -35 -469q-12 -57 -59 -57q-53 0 -62 63q-20 150 -30 181q-37 115 -111 122h-96q-150 0 -225 -114q-66 -98 -66 -256q0 -123 61 -215q70 -106 187 -107 q76 0 149 39q84 41 109 107q14 41 55 41q63 0 64 -60q0 -10 -4 -22q-37 -104 -150 -168q-104 -59 -223 -60q-172 0 -277 142q-94 127 -94 303z" />
<glyph unicode="d" horiz-adv-x="1126" d="M86 440q0 215 100 346q113 143 324 144q127 0 240 -84q0 26 -1 55q0 176 11 483q-74 -14 -148 -20q-5 -1 -10 -1q-55 0 -55 62q0 57 57 62q111 8 207 37q14 4 23 4q56 0 56 -56q0 -7 -1 -16q-10 -84 -10 -235q0 -121 -7 -361q0 -137 -4 -362q0 -27 -8 -117t-8 -154v-10 l203 70q12 4 22 4q59 0 60 -64q0 -41 -41 -55q-109 -37 -273 -100q-18 -10 -35 -11q-59 0 -59 166q0 29 4 88q-135 -238 -373 -237q-125 0 -206 139q-68 114 -68 223zM209 440q0 -63 43 -145q51 -94 108 -94q135 0 228 118q49 63 121 236q20 49 22 92q-8 16 -10 33 q-4 51 -84 92q-70 35 -127 35q-301 0 -301 -367z" />
<glyph unicode="e" horiz-adv-x="874" d="M90 659q0 16 14 29q45 334 324 361q43 4 94 4q129 0 207 -66q86 -70 86 -196q0 -82 -47 -107q-23 -12 -115 -22q-25 -2 -200 -33q-155 -27 -169 -27h-1q-10 4 -19 4q-20 -16 -43 -22q2 -121 89 -197t210 -76q72 0 123 70q45 59 55 135q8 53 60 53q31 0 49 -20 q15 -17 15 -39q0 -111 -97 -223q-86 -98 -205 -99q-176 0 -299 112t-123 286q0 23 2 45q-10 16 -10 28zM238 723q20 4 49 2q135 27 405 63v3q0 139 -170 139q-131 0 -174 -25q-77 -45 -110 -182z" />
<glyph unicode="f" horiz-adv-x="778" d="M20 92q0 62 59 62h7q88 -6 139 -7h66q0 102 -29 476q-76 -8 -137 -17q-31 -4 -50.5 14.5t-19.5 49.5q0 51 78 65q61 6 121 10q-4 80 -4 148q0 201 63 334q84 174 265 174q90 0 151.5 -50.5t61.5 -140.5q0 -53 -27 -108q-16 -35 -53 -35q-25 0 -44.5 17.5t-19.5 41.5 q0 12 10.5 40t10.5 44q0 68 -90 68q-205 0 -205 -385q0 -63 4 -135q98 6 266 26q29 4 49.5 -14t20.5 -47q0 -53 -54 -61q-66 -8 -274 -27q29 -389 29 -485q164 4 276 14q6 1 11 0q57 0 57 -62q0 -57 -56 -61q-199 -16 -477 -16q-63 0 -147 6q-58 4 -58 61z" />
<glyph unicode="g" horiz-adv-x="950" d="M156 84q0 59 63 59q39 0 55 -37q27 -59 84 -106q61 -53 121 -53q336 0 336 198q0 129 -156 129q-39 0 -115.5 -10t-115.5 -10q-55 0 -100 48t-45 104q0 102 88 208q-61 33 -97 78q-49 49 -49 96q0 127 140 207q111 63 215 64h6l170 219q20 29 49 29q25 0 45 -17.5 t20 -42.5q0 -18 -12 -35l-151 -192q150 -53 149 -203q0 -119 -73.5 -189.5t-192.5 -70.5q-45 0 -96 12q-88 -96 -88 -163q0 -12 22 -29q39 0 116 10t115 10q121 0 199 -63q80 -70 80 -189q0 -172 -152 -256q-121 -66 -307 -65q-96 0 -187 69.5t-132 163.5q-4 15 -4 27z M348 795l19 -19q96 -96 223 -96q143 0 143 137q0 63 -61 86q-33 10 -99 33q-66 -4 -137 -41q-84 -43 -88 -100z" />
<glyph unicode="h" horiz-adv-x="1228" d="M57 117q0 51 52 59q23 4 88 4q29 0 65 -2q6 45 19 166q29 342 28 514q0 76 -4 152q-8 152 -10 256q-72 -20 -148 -27h-7q-58 0 -58 61q0 57 57 62q98 6 193 47q14 6 33 6q53 0 53 -63q0 -84 8 -281q7 -144 7 -237q0 -23 -1 -43q135 168 328 167q123 0 194 -122 q49 -86 60 -199q10 -119 33 -430h165q61 0 62 -62q0 -61 -62 -61q-311 0 -424 -23q-31 -6 -52 11.5t-21 50.5q0 49 49 57q82 14 160 21q-2 82 -15 213q-16 166 -18 215q-4 68 -35 129q-39 78 -96 78q-129 0 -225 -113q-80 -94 -119 -234v-4l-13 -149q-2 -23 -20 -164h121 q76 -10 76 -66q0 -61 -62 -61q-53 0 -160.5 6t-160.5 6q-49 0 -68 -4q-7 -1 -14 -1q-58 1 -58 65z" />
<glyph unicode="i" horiz-adv-x="579" d="M59 920q0 41 50 61q43 10 86 23q74 20 114 20q76 0 76 -59q0 -115 4 -359t4 -354l121 -4q76 -10 76 -66q0 -61 -62 -61q-61 0 -185 15.5t-186.5 15.5t-62.5 61t62 61q51 0 114 -8q0 104 -4 314.5t-4 314.5q-6 -2 -74 -23q-53 -16 -69 -16q-60 1 -60 64zM248 1354 q0 61 61 61t62 -61q0 -61 -62 -62q-61 1 -61 62z" />
<glyph unicode="j" horiz-adv-x="714" d="M106 -45q0 150 74 149q61 0 62 -61q0 -14 -6.5 -44t-6.5 -44q0 -74 31 -74q94 0 154 137q49 109 49 218q0 348 -90 630q-129 -27 -119 -26q-59 0 -59 63q0 45 45 58q311 86 413 86q59 0 60 -64q0 -49 -90 -72l-129 -20q92 -297 92 -655q0 -154 -74 -297 q-92 -180 -252 -181q-154 0 -154 197zM362 1327q0 61 62 62q61 0 61 -62q0 -61 -61 -61q-62 0 -62 61z" />
<glyph unicode="k" horiz-adv-x="1224" d="M41 92q0 55 55 62l207 18q0 102 -2 252q-6 14 -2 31l-8 549q0 37 6 131q5 63 5 105q0 14 -1 26q-125 -37 -149 -37q-57 0 -58 63q0 47 47 58q203 47 211 47q74 0 74 -140q0 -43 -6 -126.5t-6 -126.5q0 -168 6 -426l178 124q98 70 152 148q-102 -16 -164 -31 q-31 -6 -52.5 11.5t-21.5 50.5q0 47 49 57q285 61 547 78h7q58 0 59 -62q0 -51 -53.5 -58t-102.5 -11q-68 -6 -135 -15q8 -27 -6 -51q-61 -104 -185 -196l336 -414q119 12 201 12q61 0 61 -61t-61 -62q-131 0 -484 -51q-29 -4 -49 14.5t-20 49.5q0 51 53 59l158 23l-297 360 q-111 -76 -166 -135q2 -133 2 -246q94 2 147 2q61 0 62 -61q0 -61 -62 -62h-143q-27 0 -80 -2h-59q12 0 -182 -18q-6 -1 -11 -1q-57 0 -57 62z" />
<glyph unicode="l" horiz-adv-x="555" d="M35 123q0 62 59 61h4q47 0 176 -12q16 352 17 424q0 115 -19 307q-23 225 -26 307q-37 2 -146 11q-55 4 -55 61q0 62 57 62q5 0 11 -1q115 -10 192 -10q25 0 43.5 -18.5t18.5 -42.5q0 -94 26 -322q20 -174 21 -352q0 -74 -17 -434h27q18 0 54 2t54 2q61 0 62 -62 q0 -61 -62 -61q-18 0 -54 -2t-54 -2q-37 0 -162 10q-111 8 -169 10.5t-58 61.5z" />
<glyph unicode="m" horiz-adv-x="1804" d="M35 938q0 47 49 57q135 29 211 29q85 0 85 -147q0 -13 -1 -27q61 66 150 110t171 44q168 0 230 -234l18 31q92 154 139 188q70 51 224 51q82 0 157 -84q59 -66 95 -157q80 -211 82 -588q51 2 84 6q7 1 13 1q54 0 54 -62q0 -55 -55 -62q-76 -8 -152 -8q-31 0 -91 4t-91 4 q-61 0 -61 62q0 61 61 61q23 0 115 -6q-2 494 -142 657q-43 49 -69 50q-117 0 -158 -33q-29 -23 -98 -146q-10 -23 -39 -61h4q-6 -12 -14 -33l-13 -31l-2 2q-2 -31 -24 -45q25 -117 53 -354h31q18 0 53 5t53 5q61 0 62 -61q0 -61 -62 -62q-18 0 -53 -5t-53 -5q-59 0 -148 10 l-143 15q-57 4 -58 61q0 62 59 62h7q43 -2 127 -13q-12 125 -45 318q-35 209 -62 262q-35 72 -88 72q-84 0 -184 -72t-108 -154q-4 -33 -29 -47q4 -23 14 -131q2 -74 15 -268h10q23 0 70 6t69 6q61 0 61 -61t-61 -62q-23 0 -70 -6t-69 -6q-96 0 -187 14h-112q-61 0 -62 62 q0 61 62 61h127q16 -2 37 -4q-2 68 -13 246q-20 244 -20 287q0 25 4 73.5t4 73.5q-55 -2 -149 -22q-31 -6 -52.5 11t-21.5 50z" />
<glyph unicode="n" horiz-adv-x="1400" d="M66 160q0 62 59 61h4q33 -2 225 -18q0 115 -18 348q-20 262 -25 358l-57 2h-102q-61 0 -62 62q0 61 62 61h106q20 0 58 -2t60.5 -2t40 -18.5t17.5 -42.5q0 -59 4 -135q123 215 342 215q147 0 226 -129q66 -106 106 -320q35 -178 39 -338q115 0 129 -2q88 -10 88 -65 q0 -31 -21.5 -49.5t-52.5 -12.5q-35 6 -157 6h-23q-18 -6 -37 -2q-25 -2 -45 -2q-12 0 -37.5 2t-38.5 2q-16 0 -82 -4h-7q-58 0 -58 62q0 57 60.5 61t86.5 4q12 0 36 -2t36 -2q-18 397 -117 580q-47 88 -131 88q-117 0 -196 -95q-66 -80 -97 -204q-8 -31 -32 -41 q23 -279 22 -387v-6h47q53 0 76 6q10 4 21 4q59 0 59 -64q0 -43 -41 -56t-115 -13t-198 12l-154 8q-106 13 -106 70z" />
<glyph unicode="o" horiz-adv-x="1050" d="M86 535q0 178 127 302t305 132h5q35 0 52 -29q178 -8 295 -139t117 -309q0 -172 -151 -277q-133 -92 -314 -92q-186 0 -311 114t-125 298zM209 535q0 -135 88 -212t225 -77q127 0 226 59q117 68 116 187q0 133 -88 229t-221 96q-35 0 -51 27q-125 -14 -210 -100t-85 -209 z" />
<glyph unicode="p" horiz-adv-x="1163" d="M43 1094q0 59 59 61q39 0 121 10.5t125 10.5q70 0 70 -74q0 -12 -2 -23l6 -168q174 178 373 179q174 0 268 -123q84 -113 84 -291q0 -168 -121 -262q-111 -86 -283 -86q-170 0 -305 116q10 -262 25 -462q57 4 110 3q36 0 70 -1q59 -2 59 -62q0 -62 -59 -61h-4 q-16 1 -32 0q-99 0 -222 -21q-152 -27 -197 -26q-59 0 -59 63q0 45 43 57q63 18 170 35q-6 215 -27 508q-10 137 -12 287q-2 186 -8 287q-92 -12 -189 -19h-7q-56 0 -56 62zM428 721l4 -92q150 -178 311 -178q119 0 195 51q86 59 86 174q0 291 -229 291q-113 0 -211 -80 q-43 -35 -156 -166z" />
<glyph unicode="q" horiz-adv-x="1046" d="M131 705q0 168 129 274q121 98 293 98q111 0 192 -39v11q0 38 13 94q6 53 59 53h4l135 -4q18 0 52 2t53 2q61 0 61 -61t-61 -62q-18 0 -52 -2t-53 -2q-16 0 -88 2q-1 -36 0 -74q0 -153 13 -342q20 -295 22 -419q0 3 0 2q-1 0 -10 -324l151 6h4q60 0 60 -61q0 -59 -59 -62 l-203 -6q-20 0 -60.5 2t-60.5 2q-27 0 -96 -4h-8q-58 0 -58 62q0 57 58 61q68 4 104 4h45l10 313q-2 96 -8 197q-111 -88 -252 -88q-123 0 -190 47q-2 6 -11 16q-45 2 -88 72q-100 119 -100 230zM254 705q0 -43 27 -87q4 -6 53 -75l4 -8q2 -4 8 -13h-6q25 -8 61 -35 q49 -25 119 -24q168 0 240 158q-10 139 -12 221q-16 16 -17 41q-2 39 -74 57q-51 14 -104 14q-121 0 -207 -63q-92 -69 -92 -186z" />
<glyph unicode="r" horiz-adv-x="800" d="M53 184q0 62 60 62h4q57 -2 202 -8q-2 45 -4 98l-4 113q-6 141 -6 210q0 145 19 259l-193 -9q-59 2 -59 62q0 62 59 61h4q10 -1 22 0q35 0 87 4q78 4 108 4q94 0 94 -92q0 -23 -8 -65.5t-8 -65.5q113 113 238 113q68 0 108.5 -49.5t46.5 -118.5q1 -5 1 -11q0 -55 -62 -55 q-53 0 -62.5 55.5t-31.5 55.5q-72 0 -145.5 -70.5t-82.5 -142.5q-2 -18 -10 -31l12 -323l172 10q61 0 62 -62q0 -61 -62 -61q-37 0 -110.5 -6t-110.5 -6q-80 0 -280 8q-60 2 -60 61z" />
<glyph unicode="s" horiz-adv-x="892" d="M106 123l13 174q10 109 47 164q25 37 47 37q29 0 78 -74q70 -106 102 -139q74 -76 160 -76q43 0 77 41t34 84q0 88 -99 164l-188 131q-109 76 -127 137l-17 55q0 14 3 47q6 96 67.5 152.5t157.5 56.5q137 0 239 -112q6 80 23 168q10 49 57 49q33 0 50 -22q13 -16 13 -37 q0 -7 -1 -15q-29 -143 -29 -387q0 -68 -61 -68q-51 0 -62 58q-18 96 -74 163q-66 80 -155 80q-61 0 -82 -29.5t-23 -93.5q4 -6 11 -26q23 -43 141 -117q131 -82 186 -139q92 -94 92 -215q0 -92 -70.5 -170t-162.5 -78q-180 0 -313 186q-2 -49 -11 -170q-6 -51 -59 -51 q-64 0 -64 61v11z" />
<glyph unicode="t" horiz-adv-x="821" d="M41 829q0 62 60 62h3q31 0 95 -6l30 403q4 57 62 58q66 0 61 -66l-30 -397q49 2 219 22q135 16 221 17q61 0 61 -62q0 -61 -61 -61q-88 0 -225 -17q-174 -20 -222 -22q-8 -156 -8 -322q0 -162 6 -211q18 -154 93 -153q88 0 112 141q10 57 10 209q0 61 62 61q61 0 61 -61 q0 -207 -28 -301q-53 -172 -217 -172q-154 0 -199 184q-23 90 -23 303q0 168 9 324q-49 2 -97 6q-55 10 -55 61z" />
<glyph unicode="u" horiz-adv-x="1323" d="M43 928q0 27 21.5 46t48.5 15q51 -6 71 -6q16 0 49 2t50 2q10 0 27.5 2t27.5 2q49 0 65 -39q8 -20 13 -75q4 -72 11 -213.5t24 -202.5q35 -129 127 -129q113 0 210 229q79 185 79 307q0 12 -1 23q-57 -4 -141 -21q-29 -6 -50.5 14.5t-21.5 49.5q0 51 52 59q119 20 251 25 h4q54 0 60 -57q25 -242 55 -701q20 6 115 27q31 6 52.5 -11.5t21.5 -50.5q0 -49 -50 -57q-129 -39 -184 -39q-76 0 -76 59q0 147 -22 381q-51 -125 -137 -227q-113 -133 -217 -133q-166 0 -228 164q-31 82 -43 299l-14 192q-53 -4 -109 -4q-141 0 -141 68z" />
<glyph unicode="v" horiz-adv-x="1310" d="M72 889q0 55 53 61q219 29 405 43q5 1 11 1q53 0 53 -62q0 -53 -76 -66q-61 -4 -123 -6q23 -86 101 -242q92 -186 110 -235q10 -29 17 -37h-7q20 -16 64 -119q82 172 260 650l-63 4q-74 0 -123 -7q-7 -1 -14 0q-56 0 -56 62q0 55 74 65q12 2 119 3q14 0 43.5 -2.5 t44.5 -2.5q45 0 133 11.5t129 11.5h4q60 0 59 -61q0 -59 -59 -62q-35 0 -158 -14l-2 -4q-168 -496 -340 -828q-20 -41 -49 -41q-43 0 -96 115l-64 145h2l-143 312q-61 131 -111 260l-129 -17q-7 -1 -14 0q-55 0 -55 62z" />
<glyph unicode="w" horiz-adv-x="1916" d="M25 944q0 55 55 62q205 27 414 45q5 1 10 0q55 0 55 -62q0 -57 -57 -61q-80 -4 -158 -15q8 -12 90 -174q72 -141 252 -413q117 197 164 370q4 16 12 29l56 211q-100 -10 -168 -10q-61 0 -62 61q0 57 111 70q80 4 162 6q135 14 198 14q61 0 62 -61q0 -61 -62 -62 q-41 0 -90 -4q127 -295 236 -458q35 -51 53 -84l137 276q76 160 119 287q-117 -10 -199 -29q-31 -6 -52.5 11.5t-21.5 50.5q0 47 50 57q215 45 458 45q61 0 62 -62q0 -53 -55.5 -58t-108.5 -5q-45 -135 -160 -387q-131 -289 -188 -350q-23 -25 -47 -25q-35 0 -54 41 q-37 82 -141 244q-66 102 -147 266l-6 12l-7 -26q-4 -23 -12 -49.5t-22 -40.5h6q-25 -98 -111 -277q-113 -233 -182 -233q-23 0 -43 30l-162 244q-102 160 -147 252l-111 215q-55 -6 -121 -14q-7 -1 -13 -1q-54 0 -54 62z" />
<glyph unicode="x" horiz-adv-x="1439" d="M27 178q0 62 59 62h4q24 -1 45.5 -1t40.5 1q207 219 332 313l94 74q-12 8 -168 129q-129 100 -147 131l-131 -15q-6 -1 -11 0q-57 0 -57 62q0 55 55 61q282 29 451 29h41q59 -2 59 -61q0 -62 -59 -62h-4q-19 1 -41 1q-63 0 -139 -5l247 -192l263 217l-101 4q-59 2 -59 61 q0 62 59 62h4q211 -8 287 -9q37 0 108.5 5.5t108.5 5.5q61 0 62 -62q0 -61 -62 -61q-29 0 -94 -4l-94 -6q-10 -23 -39 -31q-49 -14 -193 -139q-63 -55 -155 -127q57 -55 170 -201q104 -135 174 -195q10 -10 16 -18q102 8 154 8q61 0 61 -61q0 -55 -90 -68q-70 -2 -137 -2 q-115 -10 -168 -10h-43q-41 2 -60 2h-98q-61 0 -61 61t61 62h39q37 -2 59 -2h103h16q-43 45 -145 176q-88 113 -150 172q-188 -143 -278 -234l-66 -67q59 4 187 8h3q60 0 60 -62q0 -59 -59 -61l-455 -12q-59 2 -59 61z" />
<glyph unicode="y" horiz-adv-x="1499" d="M45 985q0 53 61 64h105q244 0 383 -25q51 -8 51 -59q0 -31 -20.5 -49.5t-51.5 -14.5q-92 16 -157 21q100 -127 446 -635q14 39 33 55h-2l4 16q6 16 18 27l89 233q51 129 104 228q31 57 43 90q-87 -7 -155 -7q-17 0 -33 1q-16 0 -47 -4t-46 -4q-59 0 -59 63q0 68 139 68h8 q47 0 80 -2q29 0 21 0q68 2 188 12q129 10 185 10q61 0 61 -61q0 -55 -82 -66q-66 -2 -129 -2q-2 -33 -53 -131l-70 -139q-39 -102 -127 -316q-4 -31 -22 -51l-2 -6q-8 -25 -23 -39l-16 -47q-59 -156 -183 -293q-145 -164 -274 -164q-141 0 -250.5 105.5t-109.5 245.5 q0 8 4 22q0 61 61 62q61 0 62 -62q0 -12 -5 -29q0 -88 74 -154.5t164 -66.5q131 0 291 275l-2 2l-375 549l-166 219h-49q-68 0 -102 -2q-4 0 -8 -1q-56 0 -56 62z" />
<glyph unicode="z" horiz-adv-x="1140" d="M133 1057q35 0 51 -27q80 -10 488 -10q47 0 139 -3t139 -3q66 0 66 -43q0 -49 -90 -154q-61 -70 -111 -115q-137 -121 -381 -415q-20 -25 -63 -70q168 12 202 12q70 0 191 -10q137 -12 190 -14q0 37 -13 109.5t-13 109.5q0 61 61 61t62 -61q0 -37 13 -111.5t13 -113.5 q0 -117 -73 -117q-72 0 -215.5 12t-215.5 12q-49 0 -149 -8t-150 -8q-96 0 -96 70q0 35 70 108q33 31 92 97l188 225q94 106 205 205q61 55 101 98q-119 4 -162 4q-397 0 -475 8q0 2 24 -243q1 -6 1 -11q0 -57 -62 -57q-55 0 -62 55q-27 260 -26 338q-1 70 61 70z" />
<glyph unicode="{" horiz-adv-x="567" d="M166 641q0 43 49 55q39 8 86 21.5t47 66.5q0 45 -33 121l-55 117q-37 80 -37 156q0 98 81 175t181 77q20 0 55 -14.5t35 -33.5q0 -43 -118 -63q-23 -4 -46.5 -29.5t-25.5 -48.5q-10 -31 -10 -55q0 -66 37 -146l57 -120q31 -72 31 -129q0 -102 -140 -177l72 -84 q41 -49 41 -96q0 -41 -58.5 -149.5t-58.5 -147.5q0 -63 85 -106t85 -78q0 -37 -59 -37q-57 0 -146.5 62.5t-107.5 117.5q-8 25 -8 54q0 37 33 112q2 4 43 80t41 98q0 31 -10 41l-85 90q-61 64 -61 70z" />
<glyph unicode="}" horiz-adv-x="503" d="M61 1321q0 18 33 32.5t56 14.5q104 0 183 -72.5t79 -177.5q0 -63 -27 -141l-57 -119q-41 -84 -41 -135q0 -57 53 -72q41 -8 80 -18q49 -16 49 -53q0 -10 -8 -19l-80 -78q-68 -68 -68 -104q0 -10 59.5 -127t59.5 -162q0 -74 -94 -154.5t-170 -80.5q-57 0 -57 39q0 6 4 19 t4 21l102 50q59 37 60 92q0 31 -33 98l-53 98q-33 61 -33 101q0 53 114 180q-74 39 -100 68q-39 41 -39 108q0 43 8 74q47 94 68 143q47 106 47 178q0 8 -10 58q-12 61 -70 75q-119 33 -119 64z" />
<glyph unicode="&#xa9;" horiz-adv-x="1619" d="M111 545q0 137 67 243q150 236 316 357q43 33 104 72q43 20 143 55q111 37 144 37q158 0 313 -68q190 -82 275 -233l36.5 -69t38.5 -148q10 -61 11 -86q0 -74 -19 -179q-39 -225 -232.5 -370.5t-426.5 -145.5h-119q-94 0 -303 62l-8 8q-150 33 -248 174q-92 133 -92 291z M260 555q0 -27 14 -113q16 -27 23 -55q20 -86 127 -164q100 -72 194 -84q14 -2 78 -14q55 -12 72 -12q121 -4 154 -4q176 0 323 139q160 150 154 354q0 8 4 23l4 14v100q0 14 -9 49t-7 54q-8 25 -62 125q-20 37 -61 98q-51 47 -164 98q-84 39 -121 39q-4 0 -53 4l-56 4 q-18 0 -108 -45q-68 -18 -148 -82q-47 -37 -163 -147q-18 -18 -70 -94q-125 -187 -125 -287zM608 637q0 115 154 176q51 10 102 10q104 0 142 -69q-31 -39 -93 -39q-4 0 -29.5 11t-29.5 11q-31 0 -60.5 -34.5t-29.5 -67.5q0 -10 11 -41t18.5 -31t20.5 -8t17 -8h3q6 -2 13 -6 t9 -4q12 0 40 9t40 9q14 0 34.5 -10t20.5 -23q0 -45 -69 -63q-45 -12 -88 -13q-96 0 -158 46q-68 51 -68 145z" />
<glyph unicode="&#xad;" d="M102 614l33 41q61 20 47 21q18 0 57.5 -11.5t57.5 -11.5q6 0 18.5 -4t18.5 -4q45 0 133 -3t131 -3q121 0 121 -66q0 -16 -28.5 -35.5t-45.5 -19.5q-2 0 -37 4l-53 6q-84 0 -250 4q-203 12 -203 82z" />
<glyph unicode="&#xae;" horiz-adv-x="1619" d="M111 545q0 137 67 243q150 236 316 357q43 33 104 72q43 20 143 55q111 37 144 37q158 0 313 -68q190 -82 275 -233l36.5 -69t38.5 -148q10 -61 11 -86q0 -74 -19 -179q-39 -225 -232.5 -370.5t-426.5 -145.5h-119q-94 0 -303 62l-8 8q-150 33 -248 174q-92 133 -92 291z M260 555q0 -27 14 -113q16 -27 23 -55q20 -86 127 -164q100 -72 194 -84q14 -2 78 -14q55 -12 72 -12q121 -4 154 -4q176 0 323 139q160 150 154 354q0 8 4 23l4 14v100q0 14 -9 49t-7 54q-8 25 -62 125q-20 37 -61 98q-51 47 -164 98q-84 39 -121 39q-4 0 -53 4l-56 4 q-18 0 -108 -45q-68 -18 -148 -82q-47 -37 -163 -147q-18 -18 -70 -94q-125 -187 -125 -287zM602 502q0 14 6 47t6 47q4 37 4 127q0 49 10.5 59.5t61.5 16.5q2 8 22.5 24.5t30.5 18.5q82 16 115 16q51 0 117 -16q106 -27 106 -84q0 -115 -157 -168q4 -6 82 -72 q70 -59 69 -74q0 -16 -15.5 -31.5t-31.5 -15.5h-20q-53 0 -109 45l-133 107q-6 -23 -6 -72q0 -20 2 -41q-2 -37 -23 -37q-6 0 -16 -3t-16 -3q-105 0 -105 109zM768 688q0 -6 2 -10l2 -4q14 6 23 6q6 0 18 -4t18 -4q20 0 58.5 27.5t38.5 45.5q0 4 -2 10.5t-2 8.5h-58 q-6 0 -29.5 -9.5t-29.5 -9.5h-6q-2 2 -6 3q-27 -1 -27 -60z" />
<glyph unicode="&#xb4;" horiz-adv-x="700" />
<glyph unicode="&#x2000;" horiz-adv-x="901" />
<glyph unicode="&#x2001;" horiz-adv-x="1802" />
<glyph unicode="&#x2002;" horiz-adv-x="901" />
<glyph unicode="&#x2003;" horiz-adv-x="1802" />
<glyph unicode="&#x2004;" horiz-adv-x="600" />
<glyph unicode="&#x2005;" horiz-adv-x="450" />
<glyph unicode="&#x2006;" horiz-adv-x="299" />
<glyph unicode="&#x2007;" horiz-adv-x="299" />
<glyph unicode="&#x2008;" horiz-adv-x="225" />
<glyph unicode="&#x2009;" horiz-adv-x="360" />
<glyph unicode="&#x200a;" horiz-adv-x="98" />
<glyph unicode="&#x2010;" d="M102 614l33 41q61 20 47 21q18 0 57.5 -11.5t57.5 -11.5q6 0 18.5 -4t18.5 -4q45 0 133 -3t131 -3q121 0 121 -66q0 -16 -28.5 -35.5t-45.5 -19.5q-2 0 -37 4l-53 6q-84 0 -250 4q-203 12 -203 82z" />
<glyph unicode="&#x2011;" d="M102 614l33 41q61 20 47 21q18 0 57.5 -11.5t57.5 -11.5q6 0 18.5 -4t18.5 -4q45 0 133 -3t131 -3q121 0 121 -66q0 -16 -28.5 -35.5t-45.5 -19.5q-2 0 -37 4l-53 6q-84 0 -250 4q-203 12 -203 82z" />
<glyph unicode="&#x2012;" d="M102 614l33 41q61 20 47 21q18 0 57.5 -11.5t57.5 -11.5q6 0 18.5 -4t18.5 -4q45 0 133 -3t131 -3q121 0 121 -66q0 -16 -28.5 -35.5t-45.5 -19.5q-2 0 -37 4l-53 6q-84 0 -250 4q-203 12 -203 82z" />
<glyph unicode="&#x2013;" horiz-adv-x="1024" d="M205 512v205h614v-205h-614z" />
<glyph unicode="&#x2014;" horiz-adv-x="2048" d="M205 512v205h1638v-205h-1638z" />
<glyph unicode="&#x2019;" horiz-adv-x="403" d="M129 1305q-2 23 18.5 38t42.5 15q35 0 82 -31q14 -10 19 -135q0 -39 11 -127t11 -129q0 -16 -17 -33.5t-34 -17.5h-37q-63 0 -78 184z" />
<glyph unicode="&#x201c;" horiz-adv-x="757" d="M72 1055q0 55 41 145q53 117 123 117q66 0 100 -35q0 -27 -12 -39q-53 -53 -64 -67q-18 -25 -29 -70l86 -25q53 -25 54 -77q0 -57 -53.5 -94.5t-112.5 -37.5q6 0 -37 7l-82 79q-14 64 -14 97zM428 1049q0 55 27 137q37 115 98 114h25q14 0 43.5 -15t29.5 -28 q0 12 -65 -129q-6 -12 -6 -26v-25q74 -16 94 -26q45 -23 45 -76q0 -41 -49 -72t-92 -31q-68 0 -109 53.5t-41 123.5z" />
<glyph unicode="&#x201d;" horiz-adv-x="790" d="M72 1214q0 39 51 74q47 29 90 29q68 0 108.5 -53.5t40.5 -122.5q0 -61 -24 -137q-37 -115 -100 -115h-25q-14 0 -44 15.5t-30 27.5q0 -12 66 129q6 12 8 26v25q-76 16 -102 31q-39 20 -39 71zM420 1186q0 57 53 94t113 37q-6 0 37 -6l82 -80q14 -63 14 -96 q0 -55 -41 -146q-53 -117 -123 -117q-66 0 -100 35q0 27 12 39q51 51 63 68q20 27 31 67l-88 27q-53 23 -53 78z" />
<glyph unicode="&#x2026;" horiz-adv-x="1216" d="M905 186q0 49 39 95.5t88 46.5q139 0 139 -95q0 -68 -49 -108q-55 -47 -100 -47q-47 0 -82 30.5t-35 77.5zM500 186q0 49 39 95.5t88 46.5q139 0 139 -95q0 -68 -49 -108q-55 -47 -100 -47q-47 0 -82 30.5t-35 77.5zM94 186q0 49 39 95.5t88 46.5q139 0 139 -95 q0 -68 -49 -108q-55 -47 -100 -47q-47 0 -82 30.5t-35 77.5z" />
<glyph unicode="&#x202f;" horiz-adv-x="360" />
<glyph unicode="&#x205f;" horiz-adv-x="450" />
<glyph unicode="&#x2122;" horiz-adv-x="2979" d="M1317 -49q0 25 39 45q33 18 59 18q14 0 44 -2t44 -2q51 0 64 4q31 10 31 49q0 14 -2 45t-2 48l4 516q-2 29 -7 172q0 8 7 112l4 101q0 12 -19 12q-6 0 -78 -2l-77 -4q-27 0 -66 16q-45 18 -45 39q0 23 33 37q27 12 53 12q51 0 252 17l23 8q20 6 47 6q6 0 63 -8 q12 -10 31 -31l379 -543l137 230q49 78 115 213q49 102 79 133q8 8 23 20q10 -2 28.5 3.5t24.5 5.5q20 0 62.5 -13.5t62.5 -13.5q10 0 32.5 2t33.5 2q190 0 190 -70q0 -25 -24.5 -40t-51.5 -15q-12 0 -42.5 6t-43.5 6q-4 0 -14 -2t-14 -2q-6 0 -8.5 4.5t-8.5 4.5 q-14 0 -51 -15q23 -238 23 -307q0 -31 -4 -184l-9 -295q-10 -51 -10 -76q8 -145 8 -184q49 -10 109 -11q14 0 43 3.5t43 3.5q70 0 70 -50q0 -16 -34 -37.5t-53 -21.5q-4 0 -75 -2l-76 -2l-332 22q-74 4 -74 41q0 20 33 43t56 23q20 0 53 -4q14 -2 29 -2q23 0 51 4l18 772 l-18 186q-51 -106 -140 -247q-33 -49 -127 -205q-12 -37 -43 -94q-23 -29 -57 -29q-63 0 -88 29l-147 223l-226 336v-559q2 -4 -4 -89l-6 -88q0 -12 4 -67l4 -74v-96h115q41 0 80 -12q55 -16 55 -48q0 -23 -30.5 -44t-55.5 -21q33 0 -36.5 7t-96.5 7l-322 -28 q-141 0 -141 53zM94 1292q0 23 37 39q31 10 57 10h203q25 2 156 11l155 10l490 -8q106 -2 106 -47q0 -6 -5 -18.5t-5 -18.5q-8 -55 -28 -164q-16 -74 -56 -74q-6 0 -15 -2t-15 -2q-20 0 -46 15.5t-26 33.5q0 -3 0 -2q3 0 26 156q-27 14 -108 16q-37 0 -105 6l-71 7 q-20 2 -39 -11v-106q12 -25 12 -103q0 -27 -5 -79t-5 -78q0 -45 -2 -176q-2 -150 -2 -246q0 -86 -2 -301l-19 -66h195q63 0 63 -51q0 -16 -17 -39.5t-34 -23.5h-121q-8 0 -24.5 -3.5t-24.5 -3.5q-4 0 -18 2h-19q-4 0 -12 -3t-12 -3t-12.5 2t-12.5 2t-10 -4t-12 -4 q-4 0 -105 2l-106 2q-33 0 -76 11q-57 14 -57 36q0 23 22.5 46.5t44.5 23.5h58q125 -2 129 -2q23 35 24 86v80q0 31 2 151q4 63 8 193q1 30 2 56q0 65 -8 104q2 -4 8 20q-2 18 0 55q4 68 5 54v366l-394 -12q-4 -16 -4 -47q0 -61 -2 -107q0 -37 -6 -133q-4 -12 -22.5 -27.5 t-30.5 -15.5q-6 0 -17.5 2t-17.5 2q-12 0 -62 31q18 147 19 297l-29 43q-2 6 -2 10z" />
<glyph unicode="&#xe000;" horiz-adv-x="1050" d="M0 1050h1050v-1050h-1050v1050z" />
<glyph unicode="&#xfb01;" horiz-adv-x="1357" d="M837 920q0 41 50 61q43 10 86 23q74 20 114 20q76 0 76 -59q0 -115 4 -359t4 -354l121 -4q76 -10 76 -66q0 -61 -62 -61q-61 0 -185 15.5t-186.5 15.5t-62.5 61t62 61q51 0 114 -8q0 104 -4 314.5t-4 314.5q-6 -2 -74 -23q-53 -16 -69 -16q-60 1 -60 64zM1026 1354 q0 61 61 61t62 -61q0 -61 -62 -62q-61 1 -61 62zM20 92q0 62 59 62h7q88 -6 139 -7h66q0 102 -29 476q-76 -8 -137 -17q-31 -4 -50.5 14.5t-19.5 49.5q0 51 78 65q61 6 121 10q-4 80 -4 148q0 201 63 334q84 174 265 174q90 0 151.5 -50.5t61.5 -140.5q0 -53 -27 -108 q-16 -35 -53 -35q-25 0 -44.5 17.5t-19.5 41.5q0 12 10.5 40t10.5 44q0 68 -90 68q-205 0 -205 -385q0 -63 4 -135q98 6 266 26q29 4 49.5 -14t20.5 -47q0 -53 -54 -61q-66 -8 -274 -27q29 -389 29 -485q164 4 276 14q6 1 11 0q57 0 57 -62q0 -57 -56 -61q-199 -16 -477 -16 q-63 0 -147 6q-58 4 -58 61z" />
<glyph unicode="&#xfb02;" horiz-adv-x="1333" d="M813 123q0 62 59 61h4q47 0 176 -12q16 352 17 424q0 115 -19 307q-23 225 -26 307q-37 2 -146 11q-55 4 -55 61q0 62 57 62q5 0 11 -1q115 -10 192 -10q25 0 43.5 -18.5t18.5 -42.5q0 -94 26 -322q20 -174 21 -352q0 -74 -17 -434h27q18 0 54 2t54 2q61 0 62 -62 q0 -61 -62 -61q-18 0 -54 -2t-54 -2q-37 0 -162 10q-111 8 -169 10.5t-58 61.5zM20 92q0 62 59 62h7q88 -6 139 -7h66q0 102 -29 476q-76 -8 -137 -17q-31 -4 -50.5 14.5t-19.5 49.5q0 51 78 65q61 6 121 10q-4 80 -4 148q0 201 63 334q84 174 265 174q90 0 151.5 -50.5 t61.5 -140.5q0 -53 -27 -108q-16 -35 -53 -35q-25 0 -44.5 17.5t-19.5 41.5q0 12 10.5 40t10.5 44q0 68 -90 68q-205 0 -205 -385q0 -63 4 -135q98 6 266 26q29 4 49.5 -14t20.5 -47q0 -53 -54 -61q-66 -8 -274 -27q29 -389 29 -485q164 4 276 14q6 1 11 0q57 0 57 -62 q0 -57 -56 -61q-199 -16 -477 -16q-63 0 -147 6q-58 4 -58 61z" />
<glyph unicode="&#xfb03;" horiz-adv-x="2136" d="M1615 920q0 41 50 61q43 10 86 23q74 20 114 20q76 0 76 -59q0 -115 4 -359t4 -354l121 -4q76 -10 76 -66q0 -61 -62 -61q-61 0 -185 15.5t-186.5 15.5t-62.5 61t62 61q51 0 114 -8q0 104 -4 314.5t-4 314.5q-6 -2 -74 -23q-53 -16 -69 -16q-60 1 -60 64zM1804 1354 q0 61 61 61t62 -61q0 -61 -62 -62q-61 1 -61 62zM798 92q0 62 59 62h7q88 -6 139 -7h66q0 102 -29 476q-76 -8 -137 -17q-31 -4 -50.5 14.5t-19.5 49.5q0 51 78 65q61 6 121 10q-4 80 -4 148q0 201 63 334q84 174 265 174q90 0 151.5 -50.5t61.5 -140.5q0 -53 -27 -108 q-16 -35 -53 -35q-25 0 -44.5 17.5t-19.5 41.5q0 12 10.5 40t10.5 44q0 68 -90 68q-205 0 -205 -385q0 -63 4 -135q98 6 266 26q29 4 49.5 -14t20.5 -47q0 -53 -54 -61q-66 -8 -274 -27q29 -389 29 -485q164 4 276 14q6 1 11 0q57 0 57 -62q0 -57 -56 -61q-199 -16 -477 -16 q-63 0 -147 6q-58 4 -58 61zM20 92q0 62 59 62h7q88 -6 139 -7h66q0 102 -29 476q-76 -8 -137 -17q-31 -4 -50.5 14.5t-19.5 49.5q0 51 78 65q61 6 121 10q-4 80 -4 148q0 201 63 334q84 174 265 174q90 0 151.5 -50.5t61.5 -140.5q0 -53 -27 -108q-16 -35 -53 -35 q-25 0 -44.5 17.5t-19.5 41.5q0 12 10.5 40t10.5 44q0 68 -90 68q-205 0 -205 -385q0 -63 4 -135q98 6 266 26q29 4 49.5 -14t20.5 -47q0 -53 -54 -61q-66 -8 -274 -27q29 -389 29 -485q164 4 276 14q6 1 11 0q57 0 57 -62q0 -57 -56 -61q-199 -16 -477 -16q-63 0 -147 6 q-58 4 -58 61z" />
<glyph unicode="&#xfb04;" horiz-adv-x="2111" d="M1591 123q0 62 59 61h4q47 0 176 -12q16 352 17 424q0 115 -19 307q-23 225 -26 307q-37 2 -146 11q-55 4 -55 61q0 62 57 62q5 0 11 -1q115 -10 192 -10q25 0 43.5 -18.5t18.5 -42.5q0 -94 26 -322q20 -174 21 -352q0 -74 -17 -434h27q18 0 54 2t54 2q61 0 62 -62 q0 -61 -62 -61q-18 0 -54 -2t-54 -2q-37 0 -162 10q-111 8 -169 10.5t-58 61.5zM798 92q0 62 59 62h7q88 -6 139 -7h66q0 102 -29 476q-76 -8 -137 -17q-31 -4 -50.5 14.5t-19.5 49.5q0 51 78 65q61 6 121 10q-4 80 -4 148q0 201 63 334q84 174 265 174q90 0 151.5 -50.5 t61.5 -140.5q0 -53 -27 -108q-16 -35 -53 -35q-25 0 -44.5 17.5t-19.5 41.5q0 12 10.5 40t10.5 44q0 68 -90 68q-205 0 -205 -385q0 -63 4 -135q98 6 266 26q29 4 49.5 -14t20.5 -47q0 -53 -54 -61q-66 -8 -274 -27q29 -389 29 -485q164 4 276 14q6 1 11 0q57 0 57 -62 q0 -57 -56 -61q-199 -16 -477 -16q-63 0 -147 6q-58 4 -58 61zM20 92q0 62 59 62h7q88 -6 139 -7h66q0 102 -29 476q-76 -8 -137 -17q-31 -4 -50.5 14.5t-19.5 49.5q0 51 78 65q61 6 121 10q-4 80 -4 148q0 201 63 334q84 174 265 174q90 0 151.5 -50.5t61.5 -140.5 q0 -53 -27 -108q-16 -35 -53 -35q-25 0 -44.5 17.5t-19.5 41.5q0 12 10.5 40t10.5 44q0 68 -90 68q-205 0 -205 -385q0 -63 4 -135q98 6 266 26q29 4 49.5 -14t20.5 -47q0 -53 -54 -61q-66 -8 -274 -27q29 -389 29 -485q164 4 276 14q6 1 11 0q57 0 57 -62q0 -57 -56 -61 q-199 -16 -477 -16q-63 0 -147 6q-58 4 -58 61z" />
</font>
</defs>
</svg>
